<svg width="109.57" height="85.84" viewBox="0 0 109.57 85.84" xmlns="http://www.w3.org/2000/svg"><g id="svgGroup" stroke-linecap="round" fill-rule="evenodd" font-size="9pt" stroke="#ffffff" stroke-width="0.25mm" fill="none" style="stroke:#ffffff;stroke-width:0.25mm;fill:none"><path d="M 6.836 23.828 L 10.645 23.34 A 47.732 47.732 0 0 1 12.332 23.676 Q 15.465 24.363 15.933 25.051 A 0.427 0.427 0 0 1 16.016 25.293 Q 16.915 25.708 17.717 26.81 A 9.609 9.609 0 0 1 18.359 27.832 A 7.336 7.336 0 0 1 19.656 29.19 Q 21.716 31.876 24.219 38.281 L 27.246 43.848 A 80.865 80.865 0 0 0 27.774 45.676 Q 28.88 49.331 29.576 50.03 A 0.459 0.459 0 0 0 29.883 50.195 Q 30.939 50.195 33.265 45.118 A 75.25 75.25 0 0 0 33.789 43.945 A 114.074 114.074 0 0 1 36.418 38.888 Q 37.838 36.303 39.573 33.393 A 266.678 266.678 0 0 1 43.359 27.246 A 8.287 8.287 0 0 0 43.99 26.986 Q 45.03 26.502 45.187 25.971 A 0.667 0.667 0 0 0 45.215 25.781 A 4.742 4.742 0 0 1 45.608 25.039 Q 45.865 24.649 46.173 24.39 A 2.205 2.205 0 0 1 46.777 24.023 L 48.047 24.121 A 15.711 15.711 0 0 1 51.074 23.438 Q 56.779 24.193 57.583 25.164 A 0.507 0.507 0 0 1 57.715 25.488 L 57.715 25.586 L 57.91 48.438 L 57.715 54.785 Q 58.203 58.789 59.375 75.391 L 59.18 76.465 A 2.558 2.558 0 0 0 59.787 76.733 Q 60.404 76.922 61.314 76.949 A 10.461 10.461 0 0 0 61.621 76.953 A 4.126 4.126 0 0 1 62.42 77.142 Q 63.672 77.588 63.672 78.809 L 63.672 79.395 A 83.185 83.185 0 0 1 63.653 81.251 Q 63.572 84.838 63.152 85.621 A 0.329 0.329 0 0 1 62.891 85.84 L 62.695 85.84 Q 61.133 85.059 59.473 85.059 L 53.711 85.059 A 68.082 68.082 0 0 1 51.123 85.013 Q 45.786 84.809 44.902 83.685 A 0.765 0.765 0 0 1 44.727 83.203 L 45.02 80.762 L 45.02 80.371 A 0.77 0.77 0 0 0 44.979 80.148 Q 44.87 79.797 44.464 79.191 A 11.358 11.358 0 0 0 44.336 79.004 L 44.336 78.418 A 0.297 0.297 0 0 1 44.49 78.2 Q 45.041 77.802 47.559 77.344 L 48.145 76.66 L 47.852 76.074 L 47.852 74.609 A 6.855 6.855 0 0 1 47.913 73.761 Q 48.092 72.346 48.796 69.932 A 57.07 57.07 0 0 1 48.828 69.824 L 49.219 69.336 Q 48.535 68.555 48.535 61.328 L 48.535 55.371 L 48.633 52.441 A 5.572 5.572 0 0 1 48.399 51.56 Q 48.242 50.722 48.242 49.609 L 48.242 48.145 Q 48.242 46.206 48.719 42.916 A 85.039 85.039 0 0 1 48.828 42.188 Q 48.828 41.016 49.805 39.063 L 49.902 38.477 Q 49.387 35.973 49.26 34.525 A 9.689 9.689 0 0 1 49.219 33.691 L 48.926 33.691 Q 47.564 35.054 44.886 39.112 A 148.255 148.255 0 0 0 43.652 41.016 A 162.311 162.311 0 0 1 40.925 45.95 Q 39.667 48.129 38.494 49.972 A 68.703 68.703 0 0 1 36.23 53.32 L 32.324 58.887 Q 31.779 59.704 30.813 59.761 A 2.506 2.506 0 0 1 30.664 59.766 L 29.492 59.277 A 8.374 8.374 0 0 0 28.955 59.402 Q 28.435 59.542 28.106 59.721 A 2.086 2.086 0 0 0 28.027 59.766 A 1.038 1.038 0 0 1 27.11 59.222 Q 26.829 58.772 26.71 57.95 A 7.514 7.514 0 0 1 26.66 57.52 Q 25.586 55.273 23.633 53.027 A 10.177 10.177 0 0 1 22.881 51.967 Q 21.597 49.947 19.29 45.248 A 269.013 269.013 0 0 1 17.676 41.895 L 16.602 39.941 L 15.332 37.695 L 15.43 37.598 L 16.016 37.598 A 0.426 0.426 0 0 1 16.322 37.741 Q 16.602 38.024 16.797 38.867 L 16.895 39.063 L 17.188 39.063 L 17.188 38.672 A 6.161 6.161 0 0 0 15.895 34.921 A 9.443 9.443 0 0 0 14.453 33.398 L 14.16 33.398 L 14.16 33.887 L 13.379 33.887 L 13.379 34.473 L 13.281 35.449 L 13.281 36.426 A 702.566 702.566 0 0 1 14.233 51.688 Q 14.844 63.696 14.844 73.34 Q 14.656 73.809 14.197 73.827 A 0.944 0.944 0 0 1 14.16 73.828 Q 13.8 73.828 13.772 72.915 A 5.242 5.242 0 0 1 13.77 72.754 L 13.574 72.656 L 13.379 72.656 L 13.086 74.707 Q 14.355 75.391 14.355 76.367 L 14.16 77.539 A 5.391 5.391 0 0 1 13.649 77.517 Q 12.769 77.433 12.625 77.026 A 0.509 0.509 0 0 1 12.598 76.855 L 12.305 76.855 L 12.012 77.344 L 12.012 77.832 A 0.242 0.242 0 0 0 12.149 77.996 Q 12.629 78.311 14.783 78.836 A 66.004 66.004 0 0 0 15.918 79.102 L 16.309 79.102 A 3.655 3.655 0 0 0 17.085 79.014 A 4.969 4.969 0 0 0 17.773 78.809 A 38.168 38.168 0 0 1 19.032 79.074 Q 21.777 79.707 21.777 80.273 L 21.777 80.664 L 21.191 80.762 A 1.331 1.331 0 0 1 20.78 80.686 Q 20.173 80.486 19.229 79.757 A 13.839 13.839 0 0 1 19.141 79.688 L 18.652 79.688 A 17.69 17.69 0 0 0 17.916 79.794 Q 16.309 80.064 16.309 80.469 A 0.465 0.465 0 0 0 16.631 80.808 Q 16.728 80.842 16.853 80.853 A 1.502 1.502 0 0 0 16.992 80.859 L 18.359 80.859 A 17.144 17.144 0 0 1 19.28 80.975 Q 20.609 81.181 21.059 81.534 A 0.51 0.51 0 0 1 21.289 81.934 L 21.484 82.91 L 21.484 83.496 A 1.196 1.196 0 0 1 20.804 84.602 Q 20.303 84.878 19.434 84.961 A 7.082 7.082 0 0 0 16.406 84.277 L 16.406 84.375 Q 16.406 84.628 17.137 84.663 A 5.278 5.278 0 0 0 17.383 84.668 Q 18.652 84.961 18.652 85.254 L 17.578 85.352 A 28.745 28.745 0 0 1 16.016 85.3 Q 13.497 85.16 8.882 84.635 A 364.312 364.312 0 0 1 5.859 84.277 L 3.418 84.961 A 4.71 4.71 0 0 1 2.776 84.774 Q 2.036 84.494 1.787 84.024 A 1.109 1.109 0 0 1 1.66 83.496 L 1.66 82.91 A 1.073 1.073 0 0 1 0.797 82.459 Q 0.451 82.025 0.238 81.171 A 8.451 8.451 0 0 1 0.098 80.469 L 0 80.273 L 0 79.785 Q 1.054 77.868 3.802 77.833 A 8.073 8.073 0 0 1 3.906 77.832 A 34.859 34.859 0 0 0 4.61 77.656 Q 6.348 77.2 6.348 76.953 L 6.348 76.855 L 4.688 31.641 L 4.883 27.441 L 4.492 25.879 Q 4.492 23.91 6.652 23.831 A 5.045 5.045 0 0 1 6.836 23.828 Z M 88.379 17.578 L 94.824 18.848 A 3.292 3.292 0 0 1 95.783 19.019 Q 97.47 19.545 100.488 21.68 L 100.879 21.68 A 38.811 38.811 0 0 1 100.921 20.582 Q 101.039 18.412 101.379 17.979 A 0.237 0.237 0 0 1 101.562 17.871 A 75.732 75.732 0 0 0 102.579 18.236 Q 104.602 18.945 105.078 18.945 L 107.031 18.945 L 108.594 18.848 L 108.789 19.141 L 108.691 19.727 L 108.691 32.227 A 2.756 2.756 0 0 1 108.57 33.063 A 2.245 2.245 0 0 1 108.008 33.984 A 3.983 3.983 0 0 1 108.381 34.41 Q 108.782 34.945 108.789 35.431 A 1.199 1.199 0 0 1 108.789 35.449 A 2.053 2.053 0 0 1 108.715 35.972 Q 108.589 36.447 108.251 37.029 A 7.155 7.155 0 0 1 108.203 37.109 L 108.496 38.77 A 3.519 3.519 0 0 1 108.476 39.16 Q 108.432 39.552 108.29 39.748 A 0.446 0.446 0 0 1 107.91 39.941 L 105.371 39.551 L 105.273 39.551 L 103.906 39.941 L 103.711 39.941 Q 103.382 39.941 102.707 36.963 A 75.479 75.479 0 0 1 102.441 35.742 A 3.048 3.048 0 0 0 101.74 33.803 A 4.376 4.376 0 0 0 101.27 33.301 A 21.031 21.031 0 0 1 100.838 32.646 Q 100.182 31.606 100.04 31.04 A 1.156 1.156 0 0 1 100 30.762 L 100.586 30.566 L 100.586 30.469 A 5.962 5.962 0 0 1 99.668 29.569 Q 99.098 28.863 98.884 28.069 A 3.689 3.689 0 0 1 98.828 27.832 Q 95.696 24.7 93.281 24.018 A 4.74 4.74 0 0 0 91.992 23.828 L 91.309 23.828 Q 90.234 23.828 81.543 25.879 Q 80.908 26.355 79.629 28.506 A 52.395 52.395 0 0 0 79.004 29.59 Q 77.606 31.43 77.261 33.158 A 5.714 5.714 0 0 0 77.148 34.277 Q 77.734 40.527 78.711 40.527 Q 79.98 43.848 81.738 44.531 A 0.792 0.792 0 0 0 81.971 44.76 Q 82.511 45.134 84.082 45.508 A 6.99 6.99 0 0 0 84.955 46.179 Q 86.548 47.241 89.844 48.633 Q 89.844 49.001 90.709 49.109 A 4.549 4.549 0 0 0 90.82 49.121 L 91.992 48.73 A 5.309 5.309 0 0 1 92.238 48.798 Q 92.773 48.959 92.773 49.121 L 92.773 49.219 L 92.383 49.609 L 92.383 49.902 A 4.928 4.928 0 0 0 93.534 50.942 A 3.957 3.957 0 0 0 95.703 51.562 L 95.703 51.465 L 93.848 49.902 L 93.848 49.805 A 1.556 1.556 0 0 1 94.335 49.925 Q 95.734 50.446 100.098 53.223 Q 107.782 60.351 108.181 62.565 A 1.287 1.287 0 0 1 108.203 62.793 A 182.04 182.04 0 0 1 108.668 64.869 Q 109.568 69.016 109.57 70.21 A 3.268 3.268 0 0 1 109.57 70.215 Q 108.854 76.265 108.202 77.383 A 0.402 0.402 0 0 1 107.91 77.637 L 105.566 81.738 A 172.475 172.475 0 0 1 103.969 82.7 Q 98.682 85.84 97.656 85.84 Q 86.426 83.398 82.715 81.934 A 196.576 196.576 0 0 1 80.93 80.243 Q 76.338 75.837 75.362 74.211 A 1.494 1.494 0 0 1 75.098 73.535 L 74.707 73.242 L 74.512 73.34 L 74.512 73.828 L 74.512 79.297 Q 74.512 79.916 71.63 79.974 A 31.253 31.253 0 0 1 70.996 79.98 L 69.238 79.98 L 67.773 80.469 Q 67.234 80.469 66.452 79.8 A 7.639 7.639 0 0 1 66.016 79.395 L 66.016 79.297 L 66.504 78.516 A 455.136 455.136 0 0 1 66.679 74.67 Q 67.27 62.894 68.058 62.158 A 0.156 0.156 0 0 1 68.164 62.109 L 68.359 62.109 L 70.117 62.402 A 1.747 1.747 0 0 0 70.785 62.265 A 2.291 2.291 0 0 0 71.094 62.109 L 72.363 62.402 L 73.047 62.207 L 73.438 62.207 A 0.68 0.68 0 0 1 73.618 62.366 Q 74.084 62.897 75.195 65.039 A 170.776 170.776 0 0 1 79.428 70.607 A 138.42 138.42 0 0 1 81.836 74.023 A 0.409 0.409 0 0 1 82.041 74.116 Q 82.506 74.444 83.701 75.93 A 58.239 58.239 0 0 1 84.277 76.66 L 90.332 79.297 L 92.09 79.297 L 92.09 79.688 L 92.285 79.688 L 92.773 79.395 L 92.969 79.395 A 3.785 3.785 0 0 0 93.447 79.704 Q 93.722 79.851 93.983 79.92 A 1.761 1.761 0 0 0 94.434 79.98 L 95.02 79.98 A 18.648 18.648 0 0 0 95.779 79.938 Q 97.656 79.791 97.656 79.297 L 97.656 79.102 L 95.703 79.102 L 94.531 79.004 A 0.233 0.233 0 0 1 94.661 78.896 Q 95.363 78.54 99.83 77.802 A 212.738 212.738 0 0 1 101.465 77.539 A 1.229 1.229 0 0 0 102.312 77.13 Q 103.162 76.303 103.982 73.801 A 33.004 33.004 0 0 0 104.492 72.07 A 5.558 5.558 0 0 1 104.562 71.159 Q 104.739 70.093 105.371 69.531 L 105.371 69.141 Q 104.075 65.099 102.54 63.261 A 5.51 5.51 0 0 0 101.66 62.402 A 3.783 3.783 0 0 0 100.751 61.403 Q 99.058 60.02 94.802 58.368 A 73.416 73.416 0 0 0 92.773 57.617 A 37.002 37.002 0 0 1 88.97 55.917 Q 86.426 54.593 84.57 53.027 A 25.542 25.542 0 0 1 82.808 52.438 Q 79.836 51.31 79.297 50 Q 78.711 48.73 74.805 45.801 Q 73.047 40.43 70.996 37.5 A 36.633 36.633 0 0 1 69.948 29.901 A 41.642 41.642 0 0 1 69.922 28.418 Q 70.677 25.301 76.548 19.901 A 73.845 73.845 0 0 1 76.953 19.531 Q 80.013 17.878 86.082 17.624 A 55.103 55.103 0 0 1 88.379 17.578 Z M 86.816 5.371 L 84.375 1.074 L 88.867 0 Q 91.309 5.664 92.09 6.543 A 52.736 52.736 0 0 0 92.557 7.367 Q 93.225 8.521 93.701 9.18 A 5.273 5.273 0 0 0 93.888 9.424 Q 94.381 10.029 94.629 9.863 Q 97.849 4.47 100.139 1.4 A 36.973 36.973 0 0 1 101.074 0.195 L 104.395 1.074 L 102.734 4.004 Q 102.651 4.42 100.87 6.463 A 86.756 86.756 0 0 1 100.195 7.227 L 99.219 9.18 Q 96.875 12.402 96.777 12.402 A 0.078 0.078 0 0 0 96.704 12.45 Q 96.68 12.499 96.68 12.598 L 96.68 12.695 L 96.777 12.695 A 0.331 0.331 0 0 1 96.627 12.969 Q 96.413 13.126 95.898 13.184 L 95.215 13.379 A 9.702 9.702 0 0 1 94.723 13.432 Q 93.613 13.523 92.969 13.281 A 12.395 12.395 0 0 0 91.383 11.934 A 11.045 11.045 0 0 0 90.918 11.621 Q 90.43 10.547 90.137 10.547 L 89.551 9.375 L 87.988 8.008 A 0.153 0.153 0 0 1 88.002 7.95 Q 88.039 7.859 88.184 7.715 L 87.598 6.738 A 7.678 7.678 0 0 0 87.43 6.28 Q 87.123 5.524 86.816 5.371 Z M 81.152 78.613 L 80.469 78.516 L 80.469 78.613 A 4.341 4.341 0 0 0 81.679 80.143 Q 82.842 81.112 84.887 81.787 A 17.683 17.683 0 0 0 85.352 81.934 Q 88.263 82.992 93.325 84.13 A 145.735 145.735 0 0 0 94.434 84.375 A 7.9 7.9 0 0 0 95.137 84.797 Q 95.88 85.187 96.484 85.254 L 97.363 85.254 A 9.486 9.486 0 0 0 98.224 84.972 Q 99.805 84.361 99.805 83.496 L 91.016 82.813 Q 84.105 80.625 81.66 78.987 A 6.662 6.662 0 0 1 81.152 78.613 Z M 17.578 34.863 L 21.191 42.09 L 21.484 42.09 A 3.789 3.789 0 0 0 21.35 41.237 Q 20.77 38.892 17.676 32.227 A 0.887 0.887 0 0 0 17.57 31.851 Q 17.306 31.307 16.378 30.399 A 21.392 21.392 0 0 0 15.723 29.785 L 15.527 29.199 L 14.941 29.199 Q 13.77 29.297 13.77 29.785 A 16.998 16.998 0 0 0 14.645 31.204 Q 15.765 32.849 17.578 34.863 Z M 11.914 61.719 L 11.914 67.188 L 12.012 72.363 L 12.109 72.559 L 12.305 72.559 A 1.076 1.076 0 0 0 13.258 72.025 Q 13.464 71.704 13.574 71.191 L 13.574 70.605 A 0.32 0.32 0 0 1 13.334 70.485 Q 13.145 70.275 13.022 69.701 A 5.511 5.511 0 0 1 12.988 69.531 L 13.086 67.773 L 13.086 67.676 Q 13.086 65.645 12.719 64.494 A 4.116 4.116 0 0 0 12.598 64.16 L 12.891 62.793 A 10.55 10.55 0 0 0 12.833 62.056 Q 12.705 60.953 12.352 60.598 A 0.557 0.557 0 0 0 12.109 60.449 A 3.839 3.839 0 0 0 11.926 61.383 A 4.544 4.544 0 0 0 11.914 61.719 Z M 76.953 20.996 L 78.125 20.996 Q 78.906 20.996 85.352 19.336 A 23.086 23.086 0 0 0 86.027 19.214 Q 87.695 18.884 87.695 18.555 L 87.305 18.457 A 102.439 102.439 0 0 0 84.323 18.751 Q 76.953 19.595 76.953 20.996 Z M 79.883 24.609 L 80.078 24.609 A 2.351 2.351 0 0 0 80.607 24.531 Q 81.519 24.311 83.364 23.468 A 59.567 59.567 0 0 0 84.668 22.852 L 87.305 21.875 L 87.305 21.973 L 87.012 22.559 L 87.793 22.559 L 88.379 22.363 L 88.379 21.973 L 88.184 21.68 L 88.184 21.094 L 87.988 21.094 A 57.002 57.002 0 0 0 85.251 21.986 Q 83.13 22.742 81.543 23.535 Q 80.524 23.715 80.13 24.079 A 0.703 0.703 0 0 0 79.883 24.609 Z M 56.348 50.781 L 56.543 50.586 L 56.543 47.461 A 77.391 77.391 0 0 0 56.525 45.721 Q 56.484 43.904 56.351 42.668 A 15.808 15.808 0 0 0 56.25 41.895 L 55.957 41.895 A 0.269 0.269 0 0 0 55.732 42.053 Q 55.488 42.459 55.47 43.907 A 19.054 19.054 0 0 0 55.469 44.141 Q 55.634 49.519 56.15 50.551 A 0.459 0.459 0 0 0 56.348 50.781 Z M 36.719 44.141 L 36.914 44.336 Q 37.59 43.914 38.631 41.665 A 33.272 33.272 0 0 0 38.965 40.918 A 3.404 3.404 0 0 0 39.457 40.271 Q 40.041 39.305 40.527 37.5 L 40.527 37.305 L 40.137 37.109 A 0.955 0.955 0 0 0 39.482 37.47 Q 38.453 38.547 37.112 42.835 A 70.889 70.889 0 0 0 36.719 44.141 Z M 70.215 73.34 L 70.605 74.414 L 70.605 76.953 L 70.605 77.539 A 1.788 1.788 0 0 0 70.619 77.771 Q 70.679 78.223 70.996 78.223 L 71.582 78.223 L 71.875 77.93 L 71.875 77.539 A 113.206 113.206 0 0 0 71.866 76.051 Q 71.805 71.409 71.334 71.201 A 0.11 0.11 0 0 0 71.289 71.191 Q 70.801 72.852 70.215 73.34 Z M 12.402 53.613 L 12.598 53.613 L 12.598 52.344 A 98.628 98.628 0 0 0 12.402 46.191 L 12.305 46.191 A 0.22 0.22 0 0 0 12.132 46.315 Q 11.902 46.666 11.759 48.016 A 22.484 22.484 0 0 0 11.719 48.438 A 90.577 90.577 0 0 0 11.772 49.651 Q 11.966 53.44 12.365 53.606 A 0.096 0.096 0 0 0 12.402 53.613 Z M 8.008 64.063 L 8.105 64.16 A 0.557 0.557 0 0 0 8.581 63.856 Q 8.984 63.216 8.984 61.23 L 8.984 58.105 L 8.887 57.52 A 0.286 0.286 0 0 0 8.708 57.747 Q 8.328 58.733 8.012 63.993 A 174.301 174.301 0 0 0 8.008 64.063 Z M 10.254 33.691 L 9.766 33.691 L 9.668 34.277 L 9.668 37.695 A 9.656 9.656 0 0 0 9.682 38.248 Q 9.727 39.023 9.91 39.3 A 0.293 0.293 0 0 0 10.156 39.453 A 0.258 0.258 0 0 0 10.37 39.294 Q 10.61 38.878 10.64 37.372 A 22.822 22.822 0 0 0 10.645 36.914 Q 10.645 34.934 10.28 33.773 A 4.847 4.847 0 0 0 10.254 33.691 Z M 104.59 25.195 L 104.883 25.391 L 104.883 25.488 L 104.492 25.977 L 104.492 26.27 A 0.16 0.16 0 0 0 104.54 26.372 Q 104.68 26.531 105.234 26.743 A 7.346 7.346 0 0 0 105.273 26.758 A 2.818 2.818 0 0 0 105.368 27.067 Q 105.487 27.381 105.654 27.527 A 0.495 0.495 0 0 0 105.859 27.637 L 106.152 27.637 L 106.152 27.246 L 106.055 26.953 L 106.055 26.563 L 106.348 26.563 L 106.836 26.953 L 107.031 26.953 L 107.129 26.367 L 107.129 26.172 Q 106.445 23.438 106.152 23.438 L 105.566 23.438 Q 104.59 23.828 104.59 25.195 Z M 69.238 68.359 L 68.848 68.359 Q 68.476 69.476 68.387 71.045 A 18.218 18.218 0 0 0 68.359 72.07 L 68.555 73.34 L 68.652 73.34 A 1.44 1.44 0 0 0 68.984 73.305 Q 69.432 73.199 69.513 72.766 A 1.126 1.126 0 0 0 69.531 72.559 A 35.904 35.904 0 0 1 69.294 70.124 A 28.733 28.733 0 0 1 69.238 68.359 Z M 92.09 55.664 L 91.602 55.664 L 91.602 56.152 A 6.772 6.772 0 0 0 92.896 56.589 Q 93.519 56.735 94.237 56.801 A 12.532 12.532 0 0 0 94.727 56.836 A 0.322 0.322 0 0 0 94.925 57.144 Q 95.072 57.215 95.327 57.225 A 2.174 2.174 0 0 0 95.41 57.227 L 96.191 57.227 L 96.191 57.129 A 0.554 0.554 0 0 0 95.935 56.708 Q 95.222 56.147 92.524 55.729 A 36.414 36.414 0 0 0 92.09 55.664 Z M 6.543 28.613 L 6.445 28.711 L 6.445 28.809 A 65.545 65.545 0 0 0 6.57 30.103 Q 6.837 32.6 7.147 33.147 A 0.238 0.238 0 0 0 7.324 33.301 Q 7.715 32.617 7.715 31.543 L 7.715 30.762 A 5.379 5.379 0 0 0 7.67 30.035 Q 7.561 29.242 7.188 28.89 A 1.035 1.035 0 0 0 6.543 28.613 Z M 98.34 81.445 L 98.34 81.641 L 98.633 81.836 L 99.121 81.836 Q 101.885 81.836 102.717 81.232 A 0.864 0.864 0 0 0 103.027 80.859 L 102.637 80.664 L 102.051 80.664 A 4.894 4.894 0 0 0 101.416 80.713 Q 100.317 80.859 98.34 81.445 Z M 55.957 71.582 L 55.957 73.047 L 56.348 73.633 L 56.934 73.633 A 0.203 0.203 0 0 0 57.094 73.542 Q 57.224 73.376 57.293 72.908 A 5.363 5.363 0 0 0 57.324 72.656 A 45.23 45.23 0 0 0 57.202 71.7 Q 56.873 69.336 56.543 69.336 Q 55.957 69.922 55.957 71.582 Z M 8.984 27.441 L 8.887 27.441 L 8.887 28.027 A 31.006 31.006 0 0 0 9.122 29.163 Q 9.616 31.327 10.111 31.601 A 0.293 0.293 0 0 0 10.254 31.641 L 10.547 31.641 L 10.547 31.25 L 9.863 29.59 Q 9.863 28.541 9.412 27.892 A 2.054 2.054 0 0 0 8.984 27.441 Z M 53.32 67.969 L 53.32 67.773 L 52.93 67.773 A 11.94 11.94 0 0 0 52.513 69.037 Q 52.338 69.698 52.278 70.293 A 6.015 6.015 0 0 0 52.246 70.898 A 5.888 5.888 0 0 0 52.358 71.293 Q 52.543 71.859 52.761 72.013 A 0.289 0.289 0 0 0 52.93 72.07 L 53.125 72.07 L 53.32 67.969 Z M 96.875 11.523 L 96.973 11.523 A 0.31 0.31 0 0 0 97.133 11.435 Q 97.514 11.116 98.572 9.656 A 68.541 68.541 0 0 0 99.121 8.887 L 99.121 8.496 A 2.311 2.311 0 0 0 98.42 8.596 Q 97.703 8.823 97.363 9.57 A 107.033 107.033 0 0 0 97.249 9.985 Q 96.877 11.343 96.875 11.521 A 0.169 0.169 0 0 0 96.875 11.523 Z M 75.195 31.445 L 75.195 31.543 L 75.391 31.543 A 9.898 9.898 0 0 0 76.159 30.738 Q 76.898 29.862 77.085 29.11 A 2.055 2.055 0 0 0 77.148 28.613 L 76.855 28.32 A 0.952 0.952 0 0 0 76.123 28.698 Q 75.581 29.329 75.269 31.012 A 15.582 15.582 0 0 0 75.195 31.445 Z M 76.66 45.02 L 76.563 45.02 L 76.563 45.508 Q 78.229 46.698 78.993 46.921 A 1.111 1.111 0 0 0 79.297 46.973 L 79.688 46.973 L 79.688 46.582 A 12.111 12.111 0 0 0 76.66 45.02 Z M 89.844 49.805 L 89.551 50 Q 89.936 50.578 92.701 51.823 A 50.562 50.562 0 0 0 92.773 51.855 L 92.773 51.465 A 7.586 7.586 0 0 0 91.369 50.422 A 6.029 6.029 0 0 0 89.844 49.805 Z M 96.387 21.875 L 94.727 21.875 A 0.089 0.089 0 0 0 94.772 21.933 Q 95.093 22.168 97.656 22.852 L 98.145 22.852 L 98.34 22.754 L 98.34 22.559 Q 98.103 22.005 96.97 21.9 A 6.32 6.32 0 0 0 96.387 21.875 Z M 76.855 27.637 L 77.441 28.223 L 77.637 28.223 A 3.337 3.337 0 0 0 79.05 27.618 A 4.761 4.761 0 0 0 79.785 26.953 L 79.492 26.758 L 78.418 26.758 A 2.057 2.057 0 0 0 77.776 26.852 Q 77.195 27.042 76.868 27.614 A 2.135 2.135 0 0 0 76.855 27.637 Z M 2.441 79.004 L 1.66 79.004 L 1.27 79.297 L 1.27 79.785 A 1.071 1.071 0 0 0 1.384 80.241 Q 1.636 80.774 2.441 81.445 L 2.637 81.445 A 0.251 0.251 0 0 0 2.836 81.341 Q 2.962 81.185 3.022 80.797 A 3.173 3.173 0 0 0 3.027 80.762 Q 2.957 79.499 2.686 79.144 A 0.305 0.305 0 0 0 2.441 79.004 Z M 8.105 71.191 L 8.105 72.754 L 8.496 72.949 L 8.691 72.949 L 8.984 70.801 L 8.887 70.117 L 8.691 70.117 A 0.32 0.32 0 0 0 8.452 70.238 Q 8.262 70.447 8.139 71.021 A 5.511 5.511 0 0 0 8.105 71.191 Z M 104.395 35.059 L 104.395 36.621 L 104.59 36.816 L 104.688 36.816 A 1.318 1.318 0 0 0 105.016 36.779 Q 105.444 36.668 105.547 36.233 A 1.122 1.122 0 0 0 105.566 36.133 A 8.712 8.712 0 0 1 105.309 35.439 Q 105.078 34.717 105.078 34.18 L 104.883 34.18 A 0.725 0.725 0 0 0 104.438 34.696 Q 104.4 34.836 104.395 35.009 A 1.839 1.839 0 0 0 104.395 35.059 Z M 11.914 83.496 L 9.57 83.398 L 8.984 83.691 A 2.864 2.864 0 0 0 9.846 84.007 Q 10.217 84.082 10.645 84.082 L 10.938 84.082 L 11.914 83.887 L 11.914 83.496 Z M 102.734 19.727 L 102.637 20.117 L 102.637 20.41 Q 102.637 20.92 103.228 20.986 A 1.709 1.709 0 0 0 103.418 20.996 L 105.078 20.996 L 105.078 20.898 A 3.57 3.57 0 0 0 104.291 20.184 A 2.789 2.789 0 0 0 102.734 19.727 Z M 15.43 84.082 L 13.379 83.887 L 12.695 83.887 L 12.695 84.082 L 13.867 84.375 L 15.43 84.375 L 15.43 84.082 Z M 7.715 42.871 L 7.52 42.09 L 7.129 42.09 L 7.129 44.531 L 7.422 44.727 L 7.52 44.727 L 7.715 43.164 L 7.715 42.871 Z M 97.363 8.398 L 97.363 8.301 L 97.07 8.301 A 6.924 6.924 0 0 0 96.669 8.843 Q 95.889 10.022 96.289 10.742 L 96.387 10.742 L 97.07 8.594 L 97.363 8.398 Z M 8.691 54.199 L 8.496 54.199 L 8.496 55.078 L 8.496 55.176 A 8.6 8.6 0 0 0 8.506 55.598 Q 8.557 56.641 8.887 56.641 L 9.18 55.664 Q 9.004 54.344 8.748 54.213 A 0.124 0.124 0 0 0 8.691 54.199 Z M 47.07 27.734 L 47.168 27.832 A 0.311 0.311 0 0 0 47.319 27.776 Q 47.634 27.582 48.327 26.726 A 22.849 22.849 0 0 0 48.535 26.465 L 48.535 25.879 L 48.242 25.879 A 2.102 2.102 0 0 0 47.653 26.447 Q 47.455 26.723 47.297 27.089 A 5.354 5.354 0 0 0 47.07 27.734 Z M 101.855 3.613 L 101.855 3.711 A 1.819 1.819 0 0 0 102.15 3.529 Q 102.328 3.392 102.441 3.223 Q 102.521 3.143 102.729 3.128 A 1.449 1.449 0 0 1 102.832 3.125 L 102.93 3.027 L 102.148 2.637 L 101.953 2.539 L 102.246 2.441 Q 102.246 2.181 101.937 2.075 A 0.994 0.994 0 0 0 101.855 2.051 A 0.161 0.161 0 0 0 101.702 2.164 Q 101.581 2.445 101.809 3.422 A 12.361 12.361 0 0 0 101.855 3.613 Z M 76.66 73.633 L 76.563 73.633 L 76.563 73.828 Q 76.953 75.391 78.027 75.391 L 78.027 75.195 A 7.27 7.27 0 0 0 77.771 74.664 Q 77.216 73.633 76.66 73.633 Z M 68.652 75.781 L 68.848 75.977 L 68.945 75.977 A 0.161 0.161 0 0 0 69.069 75.883 Q 69.244 75.607 69.379 74.518 A 21.455 21.455 0 0 0 69.434 74.023 L 69.238 73.828 A 0.232 0.232 0 0 0 69.057 73.948 Q 68.818 74.286 68.675 75.571 A 18.251 18.251 0 0 0 68.652 75.781 Z M 80.078 74.512 L 79.883 74.512 L 79.883 74.609 A 6.145 6.145 0 0 0 80.223 75.178 Q 80.597 75.726 80.97 75.939 A 0.952 0.952 0 0 0 81.445 76.074 L 81.445 75.781 A 12.64 12.64 0 0 0 80.976 75.28 Q 80.481 74.78 80.078 74.512 Z M 47.559 80.078 L 46.973 80.078 L 46.68 80.469 L 46.68 80.859 L 46.875 81.055 L 48.242 80.762 L 48.242 80.469 A 0.465 0.465 0 0 0 47.92 80.13 Q 47.822 80.096 47.697 80.084 A 1.502 1.502 0 0 0 47.559 80.078 Z M 107.031 30.762 L 106.738 30.762 L 106.348 31.055 L 106.348 31.738 L 106.445 32.422 L 106.738 32.422 L 107.031 30.762 Z M 32.031 52.734 L 32.031 52.441 L 31.738 52.441 A 6.483 6.483 0 0 0 31.482 52.856 Q 31.152 53.442 31.152 53.809 L 31.152 54.004 L 31.445 54.004 Q 31.934 54.004 32.031 52.734 Z M 93.262 11.816 L 93.066 11.816 A 1.037 1.037 0 0 0 93.449 12.052 Q 93.944 12.234 94.813 12.124 A 6.621 6.621 0 0 0 94.922 12.109 L 94.922 12.012 A 340.74 340.74 0 0 0 94.554 11.966 Q 93.456 11.83 93.286 11.818 A 0.382 0.382 0 0 0 93.262 11.816 Z M 99.609 23.828 L 100.098 24.316 L 100.586 24.316 L 100.879 24.023 L 100.879 23.73 A 0.283 0.283 0 0 0 100.806 23.552 Q 100.662 23.374 100.23 23.197 A 4.506 4.506 0 0 0 100.098 23.145 Q 99.628 23.332 99.61 23.791 A 0.944 0.944 0 0 0 99.609 23.828 Z M 74.805 42.383 L 74.805 43.066 L 75.195 43.457 L 75.977 43.457 L 75.977 43.066 Q 75.436 42.526 75.017 42.413 A 0.815 0.815 0 0 0 74.805 42.383 Z M 11.914 56.836 L 11.914 57.227 L 12.012 58.496 L 12.305 58.496 L 12.305 57.813 Q 12.305 56.836 11.914 56.836 Z M 91.309 7.227 L 91.211 7.227 A 16.405 16.405 0 0 0 91.177 7.542 Q 91.045 8.887 91.309 8.887 Q 91.682 7.618 91.485 7.319 A 0.198 0.198 0 0 0 91.309 7.227 Z M 87.109 1.465 L 87.695 1.465 L 88.867 1.465 A 14.387 14.387 0 0 0 88.528 1.384 Q 88.088 1.285 87.861 1.272 A 1.135 1.135 0 0 0 87.793 1.27 L 87.5 1.27 A 1.173 1.173 0 0 0 87.37 1.276 Q 87.239 1.291 87.174 1.338 A 0.149 0.149 0 0 0 87.109 1.465 Z M 45.898 29.785 L 46.094 29.785 L 46.191 29.785 A 4.068 4.068 0 0 0 46.448 29.456 Q 46.704 29.085 46.761 28.782 A 0.912 0.912 0 0 0 46.777 28.613 L 46.777 28.418 L 46.68 28.418 A 1.8 1.8 0 0 0 46.219 28.819 Q 45.909 29.209 45.899 29.748 A 1.949 1.949 0 0 0 45.898 29.785 Z M 12.012 26.367 L 11.523 26.367 L 10.938 26.465 L 10.938 26.758 A 0.143 0.143 0 0 0 10.989 26.859 Q 11.138 27.002 11.71 27.146 A 6.802 6.802 0 0 0 11.719 27.148 A 3.16 3.16 0 0 0 11.918 27.075 Q 12.305 26.917 12.305 26.758 L 12.305 26.563 L 12.012 26.367 Z M 47.559 82.91 L 46.875 83.105 L 46.875 83.398 L 47.168 83.496 L 48.242 83.496 L 48.242 83.398 Q 48.054 82.929 47.596 82.911 A 0.944 0.944 0 0 0 47.559 82.91 Z M 105.859 76.172 L 105.371 76.172 L 104.883 76.66 L 105.273 77.051 L 105.762 77.051 L 106.152 76.66 L 106.152 76.465 L 105.859 76.172 Z M 57.227 74.805 L 56.934 74.609 L 56.055 74.609 L 56.055 74.805 L 56.543 75.391 L 56.738 75.391 L 57.227 75 L 57.227 74.805 Z M 96.875 11.621 L 96.68 11.621 L 95.898 12.598 L 95.898 12.695 A 1.007 1.007 0 0 0 96.265 12.634 Q 96.706 12.462 96.777 11.816 A 0.078 0.078 0 0 0 96.85 11.768 Q 96.875 11.72 96.875 11.621 Z M 52.246 42.188 L 52.246 42.48 L 52.441 42.773 A 0.465 0.465 0 0 0 52.78 42.451 Q 52.814 42.354 52.826 42.229 A 1.502 1.502 0 0 0 52.832 42.09 L 52.832 41.504 L 52.637 41.504 A 0.465 0.465 0 0 0 52.298 41.826 Q 52.264 41.924 52.252 42.049 A 1.502 1.502 0 0 0 52.246 42.188 Z M 103.32 21.973 L 103.125 21.973 L 102.93 22.363 L 102.93 22.559 L 103.027 23.145 L 103.32 23.145 L 103.613 22.852 L 103.613 22.363 L 103.32 21.973 Z M 77.441 23.34 L 77.441 23.438 A 0.308 0.308 0 0 0 77.469 23.572 Q 77.545 23.73 77.832 23.73 Q 78.32 23.535 78.516 23.047 L 78.516 22.852 A 2.415 2.415 0 0 0 78.152 22.877 Q 77.714 22.944 77.527 23.189 A 0.635 0.635 0 0 0 77.441 23.34 Z M 104.883 29.785 L 104.492 29.785 L 104.102 30.078 L 104.102 30.176 L 104.492 30.566 L 104.883 30.566 L 105.273 30.176 L 105.273 30.078 L 104.883 29.785 Z M 14.844 27.148 L 14.844 27.246 L 15.918 27.246 L 16.016 27.148 L 16.016 26.953 L 15.918 26.758 A 3.752 3.752 0 0 0 15.583 26.772 Q 14.923 26.831 14.844 27.148 Z M 89.16 48.633 L 88.867 48.34 L 87.988 48.34 A 0.442 0.442 0 0 0 88.251 48.642 Q 88.444 48.73 88.77 48.73 L 89.16 48.73 L 89.16 48.633 Z M 96.094 11.23 L 95.215 11.426 L 95.215 11.523 A 0.393 0.393 0 0 0 95.485 11.787 Q 95.562 11.811 95.658 11.815 A 0.974 0.974 0 0 0 95.703 11.816 A 3.042 3.042 0 0 0 95.869 11.71 Q 96.126 11.532 96.178 11.395 A 0.188 0.188 0 0 0 96.191 11.328 L 96.191 11.23 L 96.094 11.23 Z M 52.441 45.215 L 52.246 44.922 L 52.051 44.922 L 52.051 45.313 L 52.246 45.898 L 52.441 45.898 L 52.441 45.215 Z M 93.555 10.254 L 93.457 10.254 Q 93.457 10.506 93.82 10.759 A 2.21 2.21 0 0 0 93.945 10.84 L 94.043 10.84 L 94.434 10.645 A 1.163 1.163 0 0 1 93.705 10.387 A 1.598 1.598 0 0 1 93.555 10.254 Z M 95.996 83.887 L 95.41 83.887 L 95.41 83.496 L 95.605 83.496 A 1.788 1.788 0 0 1 95.838 83.51 Q 96.289 83.569 96.289 83.887 L 95.996 83.887 Z M 107.129 29.004 L 107.031 28.613 L 106.543 28.613 L 106.543 28.809 A 2.519 2.519 0 0 0 106.667 29.03 Q 106.898 29.395 107.129 29.395 L 107.129 29.004 Z M 54.59 76.074 L 54.199 75.684 L 53.809 76.074 L 54.004 76.367 L 54.59 76.367 L 54.59 76.074 Z M 105.078 38.184 L 104.883 38.184 L 104.59 38.477 L 105.078 38.77 L 105.371 38.77 L 105.469 38.477 L 105.078 38.184 Z M 52.637 40.43 L 52.832 40.43 A 0.522 0.522 0 0 0 53.008 40.22 Q 53.125 39.983 53.125 39.551 A 0.725 0.725 0 0 0 52.68 40.067 Q 52.642 40.207 52.637 40.38 A 1.839 1.839 0 0 0 52.637 40.43 Z M 13.379 75.586 L 12.988 75.586 L 12.695 75.781 L 12.988 76.074 L 13.379 76.074 L 13.574 75.781 L 13.379 75.586 Z M 50.293 75.098 L 50.293 74.609 L 50 74.609 L 49.902 75.195 L 49.902 75.391 L 50.195 75.391 L 50.293 75.098 Z M 85.84 78.418 L 85.84 78.516 Q 86.028 78.985 86.486 79.003 A 0.944 0.944 0 0 0 86.523 79.004 Q 86.409 78.662 86.195 78.519 A 0.627 0.627 0 0 0 85.84 78.418 Z M 100.488 5.176 L 100.488 5.371 L 100.684 5.371 Q 100.899 5.155 100.956 4.992 A 0.333 0.333 0 0 0 100.977 4.883 L 100.977 4.688 L 100.879 4.688 Q 100.53 4.775 100.493 5.096 A 0.695 0.695 0 0 0 100.488 5.176 Z M 101.172 4.297 L 101.367 4.297 A 0.173 0.173 0 0 0 101.48 4.248 Q 101.594 4.149 101.708 3.851 A 3.447 3.447 0 0 0 101.758 3.711 L 101.66 3.613 Q 101.465 3.613 101.172 4.297 Z M 105.078 32.617 L 104.688 32.422 L 104.492 32.422 L 104.492 32.617 L 104.688 32.91 L 105.078 32.91 L 105.078 32.617 Z M 98.828 58.594 L 98.633 58.301 L 98.34 58.301 L 98.34 58.594 L 98.633 58.887 L 98.828 58.887 L 98.828 58.594 Z M 53.809 63.281 L 53.613 63.086 L 53.32 63.086 L 53.223 63.379 L 53.613 63.672 L 53.809 63.379 L 53.809 63.281 Z M 3.125 83.203 L 3.027 82.813 L 2.637 82.813 L 2.637 83.105 L 2.832 83.398 L 3.027 83.203 L 3.125 83.203 Z M 93.164 10.742 L 92.578 10.254 L 92.48 10.254 L 92.48 10.352 A 0.173 0.173 0 0 0 92.529 10.464 Q 92.628 10.578 92.926 10.692 A 3.447 3.447 0 0 0 93.066 10.742 L 93.164 10.742 Z M 53.516 73.73 L 53.516 73.633 L 52.93 73.633 L 52.93 74.023 L 53.223 74.023 L 53.516 73.73 Z M 100.488 5.664 L 100.488 5.566 Q 100.244 5.566 100.067 5.974 A 2.209 2.209 0 0 0 100 6.152 Q 100.243 6.071 100.418 5.79 A 1.536 1.536 0 0 0 100.488 5.664 Z M 72.754 26.855 L 72.559 26.855 L 72.266 27.148 L 72.266 27.246 L 72.754 27.246 L 72.754 26.855 Z M 8.105 75.195 L 8.008 75 L 7.813 75 L 7.813 75.488 L 8.105 75.488 L 8.105 75.195 Z M 6.348 26.953 L 6.348 26.465 L 6.055 26.465 L 6.055 26.758 L 6.25 26.953 L 6.348 26.953 Z M 106.055 29.59 L 106.055 29.297 L 105.762 29.59 L 106.055 29.59 Z M 100 6.348 L 99.902 6.348 L 99.707 6.543 L 100 6.543 L 100 6.348 Z M 93.066 12.305 L 92.969 12.207 L 92.871 12.207 L 92.969 12.402 L 93.066 12.402 L 93.066 12.305 Z M 87.988 5.371 A 0.281 0.281 0 0 0 87.998 5.448 Q 88.023 5.535 88.111 5.558 A 0.288 0.288 0 0 0 88.184 5.566 A 0.281 0.281 0 0 0 88.174 5.489 Q 88.149 5.402 88.061 5.379 A 0.288 0.288 0 0 0 87.988 5.371 Z M 87.5 2.832 L 87.402 2.832 L 87.305 2.832 L 87.5 2.832 Z"/></g></svg>