<svg id="Vrstva_1" data-name="Vrstva 1" xmlns="http://www.w3.org/2000/svg" viewBox="0 0 131.66 102.09"><polygon points="38.55 69.69 42 69.69 42 70.24 39.18 70.24 39.18 72.24 41.73 72.24 41.73 72.79 39.18 72.79 39.18 75.38 38.55 75.38 38.55 69.69"/><path d="M43.82,75.46a1.67,1.67,0,0,1-.69-.14,1.09,1.09,0,0,1-.47-.4,1.32,1.32,0,0,1,.3-1.63,2.73,2.73,0,0,1,1.49-.35l.79,0v-.34a.86.86,0,0,0-.24-.64,1,1,0,0,0-.75-.23,1.23,1.23,0,0,0-.65.17.81.81,0,0,0-.35.56h-.56a1.25,1.25,0,0,1,.21-.65,1.23,1.23,0,0,1,.55-.41,2.09,2.09,0,0,1,.83-.14,2.32,2.32,0,0,1,.85.14,1.13,1.13,0,0,1,.52.44,1.39,1.39,0,0,1,.18.73v2.83H45.3l0-.78a1.45,1.45,0,0,1-.62.67,1.74,1.74,0,0,1-.82.19M44,75a1.41,1.41,0,0,0,.44-.08,1.26,1.26,0,0,0,.39-.22,1.22,1.22,0,0,0,.3-.3.68.68,0,0,0,.11-.35v-.72h-.66a3.22,3.22,0,0,0-.84.1,1,1,0,0,0-.49.29.82.82,0,0,0-.16.51.71.71,0,0,0,.25.56A1.06,1.06,0,0,0,44,75"/><polygon points="50.41 75.38 49.75 75.38 48.43 73.26 47.55 74.16 47.55 75.38 46.94 75.38 46.94 69.54 47.55 69.54 47.55 73.44 49.58 71.31 50.3 71.31 48.84 72.84 50.41 75.38"/><path d="M52.65,75.46a2.36,2.36,0,0,1-.61-.09,1.42,1.42,0,0,1-.5-.27,1.18,1.18,0,0,1-.33-.43,1.48,1.48,0,0,1-.12-.61V71.31h.61V74a1,1,0,0,0,.26.7,1.1,1.1,0,0,0,.8.26,1.12,1.12,0,0,0,.77-.25.94.94,0,0,0,.29-.75V71.31h.61v4.07h-.5l-.06-.77a1.21,1.21,0,0,1-.24.48,1.15,1.15,0,0,1-.43.28,1.63,1.63,0,0,1-.55.09"/><path d="M56.44,75.42a1.34,1.34,0,0,1-.48-.08.85.85,0,0,1-.29-.23,1,1,0,0,1-.14-.35,1.75,1.75,0,0,1,0-.4V69.54h.61v4.77a.82.82,0,0,0,.12.49.44.44,0,0,0,.33.16h.23v.4l-.18,0h-.16"/><path d="M59.34,71.77h-.92V74.4a1,1,0,0,0,0,.34.25.25,0,0,0,.16.14,1.42,1.42,0,0,0,.33,0h.42v.42a.89.89,0,0,1-.23,0l-.35,0a1.37,1.37,0,0,1-.6-.11.6.6,0,0,1-.3-.33,1.42,1.42,0,0,1-.09-.54V71.77h-.66v-.46h.68L58,70.14h.46v1.17h.92Z"/><path d="M61.38,75.46a1.68,1.68,0,0,1-.7-.14,1.08,1.08,0,0,1-.63-1,1.14,1.14,0,0,1,.46-1,2.8,2.8,0,0,1,1.5-.35l.78,0v-.34a.86.86,0,0,0-.24-.64,1,1,0,0,0-.74-.23,1.3,1.3,0,0,0-.66.17.84.84,0,0,0-.35.56h-.56A1.16,1.16,0,0,1,61,71.38a2.11,2.11,0,0,1,.84-.14,2.36,2.36,0,0,1,.85.14,1.18,1.18,0,0,1,.52.44,1.49,1.49,0,0,1,.17.73v2.83h-.52l0-.78a1.45,1.45,0,0,1-.62.67,1.73,1.73,0,0,1-.81.19m.17-.46a1.36,1.36,0,0,0,.44-.08,1.31,1.31,0,0,0,.4-.22,1.17,1.17,0,0,0,.29-.3.68.68,0,0,0,.11-.35v-.72h-.65a3.24,3.24,0,0,0-.85.1.88.88,0,0,0-.48.29.76.76,0,0,0-.16.51.68.68,0,0,0,.25.56,1,1,0,0,0,.65.2"/><path d="M66.38,75.38V71.31H67v.74a1.29,1.29,0,0,1,.29-.47,1.41,1.41,0,0,1,.42-.26,1.31,1.31,0,0,1,.48-.08h.19l.15,0v.6l-.17,0h-.17a1.53,1.53,0,0,0-.43,0,1.2,1.2,0,0,0-.37.15.76.76,0,0,0-.26.3.88.88,0,0,0-.1.45v2.61Z"/><path d="M69.25,70.37h.65V69.7h-.65Zm0,5h.6V71.31h-.6Z"/><path d="M72.13,75.46a1.71,1.71,0,0,1-.7-.14,1.12,1.12,0,0,1-.46-.4,1.14,1.14,0,0,1-.17-.63,1.16,1.16,0,0,1,.46-1,2.8,2.8,0,0,1,1.5-.35l.79,0v-.34a.83.83,0,0,0-.25-.64,1,1,0,0,0-.74-.23,1.3,1.3,0,0,0-.66.17.84.84,0,0,0-.35.56H71a1.16,1.16,0,0,1,.76-1.06,2.18,2.18,0,0,1,.84-.14,2.32,2.32,0,0,1,.85.14,1.13,1.13,0,0,1,.52.44,1.39,1.39,0,0,1,.18.73v2.83h-.53l0-.78a1.51,1.51,0,0,1-.62.67,1.77,1.77,0,0,1-.82.19M72.3,75a1.32,1.32,0,0,0,.44-.08,1.2,1.2,0,0,0,.4-.22,1.17,1.17,0,0,0,.29-.3.7.7,0,0,0,.12-.35v-.72h-.66a3.16,3.16,0,0,0-.84.1.91.91,0,0,0-.49.29.76.76,0,0,0-.16.51.68.68,0,0,0,.25.56,1,1,0,0,0,.65.2"/><path d="M76.75,75.46a1.57,1.57,0,0,1-1.25-.54A2.38,2.38,0,0,1,75,73.33a3.06,3.06,0,0,1,.18-1.1,1.6,1.6,0,0,1,.56-.73,1.84,1.84,0,0,1,1.48-.18,1.36,1.36,0,0,1,.4.2,1.31,1.31,0,0,1,.27.25,1,1,0,0,1,.14.21V69.54h.63v5.84h-.49l-.06-.83a2.57,2.57,0,0,1-.12.26,1.05,1.05,0,0,1-.24.3,1.24,1.24,0,0,1-.41.25,1.89,1.89,0,0,1-.63.1m.1-.49a1.07,1.07,0,0,0,.94-.39,2.29,2.29,0,0,0,.28-1.29,2.57,2.57,0,0,0-.12-.84,1.08,1.08,0,0,0-.39-.54,1.18,1.18,0,0,0-.69-.18,1.1,1.1,0,0,0-.87.37,1.8,1.8,0,0,0-.34,1.19,2.15,2.15,0,0,0,.3,1.23,1,1,0,0,0,.89.45"/><path d="M80.22,73.49a2,2,0,0,0,.13.74,1.24,1.24,0,0,0,.42.54,1.18,1.18,0,0,0,.7.2,1.29,1.29,0,0,0,.72-.2.86.86,0,0,0,.37-.55h.59a1.32,1.32,0,0,1-.33.68,1.42,1.42,0,0,1-.6.42,2,2,0,0,1-.74.14,1.86,1.86,0,0,1-1-.25,1.65,1.65,0,0,1-.67-.71,2.39,2.39,0,0,1-.24-1.11,2.86,2.86,0,0,1,.22-1.14,1.66,1.66,0,0,1,.63-.75,1.74,1.74,0,0,1,1-.26,1.76,1.76,0,0,1,.95.24,1.56,1.56,0,0,1,.6.69,2.65,2.65,0,0,1,.2,1.07v.25Zm0-.44h2.36a1.83,1.83,0,0,0-.12-.68,1,1,0,0,0-1-.65,1.15,1.15,0,0,0-.69.19,1.32,1.32,0,0,0-.39.51,1.51,1.51,0,0,0-.13.63"/><path d="M84.09,75.38V71.31h.59v.6a1.23,1.23,0,0,1,.28-.33,1.43,1.43,0,0,1,.44-.24,1.72,1.72,0,0,1,.58-.09,1.58,1.58,0,0,1,.72.16,1.12,1.12,0,0,1,.51.48,1.62,1.62,0,0,1,.2.83v2.66h-.62v-2.6a.88.88,0,0,0-1-1,1.67,1.67,0,0,0-.55.09,1,1,0,0,0-.42.29.76.76,0,0,0-.15.48v2.75Z"/><path d="M88.47,70.37h.65V69.7h-.65Zm0,5h.6V71.31h-.6Z"/><path d="M91.35,75.46a1.67,1.67,0,0,1-.69-.14,1.09,1.09,0,0,1-.47-.4,1.28,1.28,0,0,1,.3-1.63A2.73,2.73,0,0,1,92,72.94l.79,0v-.34a.86.86,0,0,0-.24-.64,1,1,0,0,0-.75-.23,1.23,1.23,0,0,0-.65.17.82.82,0,0,0-.36.56h-.55a1.17,1.17,0,0,1,.21-.65,1.26,1.26,0,0,1,.54-.41,2.18,2.18,0,0,1,.84-.14,2.32,2.32,0,0,1,.85.14,1.13,1.13,0,0,1,.52.44,1.39,1.39,0,0,1,.18.73v2.83h-.53l0-.78a1.45,1.45,0,0,1-.62.67,1.74,1.74,0,0,1-.82.19m.18-.46a1.31,1.31,0,0,0,.43-.08,1.2,1.2,0,0,0,.4-.22,1.17,1.17,0,0,0,.29-.3.62.62,0,0,0,.12-.35v-.72h-.66a3.22,3.22,0,0,0-.84.1,1,1,0,0,0-.49.29.76.76,0,0,0-.16.51.71.71,0,0,0,.25.56,1.06,1.06,0,0,0,.66.2"/><path d="M44.51,84a1.67,1.67,0,0,1-.69-.14,1.16,1.16,0,0,1-.47-.4,1.28,1.28,0,0,1,.3-1.63,2.73,2.73,0,0,1,1.49-.35l.79,0V81.1a.86.86,0,0,0-.24-.64,1,1,0,0,0-.75-.23,1.15,1.15,0,0,0-.65.17.8.8,0,0,0-.36.56h-.55a1.17,1.17,0,0,1,.21-.65,1.18,1.18,0,0,1,.54-.41,2.17,2.17,0,0,1,.84-.15,2.12,2.12,0,0,1,.85.15,1.13,1.13,0,0,1,.52.44,1.39,1.39,0,0,1,.18.73V83.9H46l0-.78a1.45,1.45,0,0,1-.62.67,1.87,1.87,0,0,1-.82.19m.18-.46a1.31,1.31,0,0,0,.43-.08,1.41,1.41,0,0,0,.4-.22,1.17,1.17,0,0,0,.29-.3.62.62,0,0,0,.12-.35v-.72h-.66a3.22,3.22,0,0,0-.84.1,1,1,0,0,0-.49.29.76.76,0,0,0-.16.51.71.71,0,0,0,.25.56,1.06,1.06,0,0,0,.66.2"/><path d="M49.58,78.89h.64v-.67h-.64Zm0,5h.6V79.83h-.6Z"/><path d="M51.34,83.9V79.83h.59v.6a1.23,1.23,0,0,1,.28-.33,1.43,1.43,0,0,1,.44-.24,1.72,1.72,0,0,1,.58-.09,1.51,1.51,0,0,1,.71.16,1.15,1.15,0,0,1,.52.48,1.57,1.57,0,0,1,.19.83V83.9H54V81.3a1,1,0,0,0-.26-.77,1,1,0,0,0-.7-.24,1.63,1.63,0,0,0-.55.09.91.91,0,0,0-.42.29.77.77,0,0,0-.16.48V83.9Z"/><path d="M57.84,79.83v.46h-1V83.9h-.61V80.29h-.89v-.46h.89v-.64a1,1,0,0,1,.23-.73,1,1,0,0,1,.72-.25h.72v.45h-.62a.42.42,0,0,0-.36.14.77.77,0,0,0-.09.42v.61Z"/><path d="M60.13,84a1.91,1.91,0,0,1-1-.24,1.53,1.53,0,0,1-.64-.71,2.48,2.48,0,0,1-.23-1.15,2.71,2.71,0,0,1,.21-1.11,1.65,1.65,0,0,1,.62-.75,1.79,1.79,0,0,1,1-.27,1.88,1.88,0,0,1,1,.25,1.62,1.62,0,0,1,.63.71A2.74,2.74,0,0,1,62,81.88,2.62,2.62,0,0,1,61.74,83a1.65,1.65,0,0,1-.61.74,1.76,1.76,0,0,1-1,.27m0-.5a1.08,1.08,0,0,0,.65-.19,1.12,1.12,0,0,0,.41-.55,2.26,2.26,0,0,0,.15-.87,2.63,2.63,0,0,0-.13-.83,1.15,1.15,0,0,0-.39-.58,1.15,1.15,0,0,0-1.77.53,2.28,2.28,0,0,0-.15.88,2.56,2.56,0,0,0,.13.82,1.24,1.24,0,0,0,.4.58,1.1,1.1,0,0,0,.7.21"/><path d="M62.82,83.9V79.83h.59v.74a1.17,1.17,0,0,1,.29-.47,1.14,1.14,0,0,1,.42-.26,1.27,1.27,0,0,1,.47-.09l.19,0a.39.39,0,0,1,.15,0v.6l-.16,0h-.18a1.49,1.49,0,0,0-.42,0,1.11,1.11,0,0,0-.37.15.79.79,0,0,0-.27.3,1,1,0,0,0-.09.45V83.9Z"/><path d="M65.68,83.9V79.83h.59v.6a1.34,1.34,0,0,1,.45-.47,1.25,1.25,0,0,1,.76-.21,1.54,1.54,0,0,1,.46.08,1.41,1.41,0,0,1,.42.22,1.07,1.07,0,0,1,.3.37,1.31,1.31,0,0,1,.51-.48,1.37,1.37,0,0,1,.73-.19,1.75,1.75,0,0,1,.44.07,1,1,0,0,1,.43.22,1.2,1.2,0,0,1,.33.45,2,2,0,0,1,.12.75V83.9h-.61V81.3a1.17,1.17,0,0,0-.13-.62.68.68,0,0,0-.32-.31,1.06,1.06,0,0,0-.43-.08,1.33,1.33,0,0,0-.43.07.86.86,0,0,0-.39.27.75.75,0,0,0-.16.52V83.9h-.61V81.06a.67.67,0,0,0-.14-.43.93.93,0,0,0-.33-.26,1,1,0,0,0-.4-.08,1.19,1.19,0,0,0-.45.08.88.88,0,0,0-.38.28.8.8,0,0,0-.15.5V83.9Z"/><path d="M73.39,84a1.71,1.71,0,0,1-.7-.14,1.23,1.23,0,0,1-.17-2,2.8,2.8,0,0,1,1.5-.35l.78,0V81.1a.86.86,0,0,0-.24-.64,1,1,0,0,0-.74-.23,1.2,1.2,0,0,0-.66.17.82.82,0,0,0-.35.56h-.56a1.26,1.26,0,0,1,.22-.65A1.18,1.18,0,0,1,73,79.9a2.46,2.46,0,0,1,1.69,0,1.13,1.13,0,0,1,.52.44,1.39,1.39,0,0,1,.17.73V83.9h-.52l-.05-.78a1.41,1.41,0,0,1-.62.67,1.82,1.82,0,0,1-.81.19m.17-.46a1.32,1.32,0,0,0,.44-.08,1.41,1.41,0,0,0,.4-.22,1.17,1.17,0,0,0,.29-.3.68.68,0,0,0,.11-.35v-.72h-.65a3.3,3.3,0,0,0-.85.1.91.91,0,0,0-.48.29.76.76,0,0,0-.16.51.68.68,0,0,0,.25.56,1,1,0,0,0,.65.2"/><path d="M78.39,80.29h-.92v2.63a1,1,0,0,0,0,.34.25.25,0,0,0,.16.14,1.42,1.42,0,0,0,.33,0h.41v.42l-.22.05h-.35a1.24,1.24,0,0,1-.6-.11.55.55,0,0,1-.3-.32,1.45,1.45,0,0,1-.09-.54V80.29h-.66v-.46h.67L77,78.66h.46v1.17h.92Z"/><path d="M79.26,78.89h.65v-.67h-.65Zm0,5h.6V79.83h-.6Z"/><polygon points="84.5 83.9 83.83 83.9 82.51 81.78 81.64 82.68 81.64 83.9 81.03 83.9 81.03 78.06 81.64 78.06 81.64 81.96 83.66 79.83 84.39 79.83 82.92 81.36 84.5 83.9"/><path d="M85.75,85.2a1.64,1.64,0,0,1-.58-.09V84.7h.41a1.9,1.9,0,0,0,.37,0,1,1,0,0,0,.23-.11,1.06,1.06,0,0,0,.15-.15l.09-.17.16-.43-1.59-4h.62l1.26,3.27,1.25-3.27h.6L87,84.28a1.86,1.86,0,0,1-.33.55.92.92,0,0,1-.41.28,1.35,1.35,0,0,1-.5.09"/><path d="M17.08,65.69v-.4l2.49-3.66H17.21V61H20.7v.39L18.18,65h2.49v.68Zm1.63-5.13-.84-.8h.63l.49.47.44-.47h.67l-.83.8Z"/><rect x="21.45" y="60.95" width="0.8" height="4.74"/><polygon points="23.36 60.95 24.16 60.95 24.16 65 26.3 65 26.3 65.69 23.35 65.69 23.36 60.95"/><rect x="27.05" y="60.95" width="0.8" height="4.74"/><polygon points="32.04 60.95 32.84 60.95 32.84 65.69 32.12 65.69 29.74 62.22 29.74 65.69 28.95 65.69 28.95 60.95 29.72 60.95 32.04 64.34 32.04 60.95"/><path d="M35.62,65.76a2.52,2.52,0,0,1-.67-.09,2,2,0,0,1-.6-.26,1.5,1.5,0,0,1-.44-.43,1.31,1.31,0,0,1-.22-.6h.83a.71.71,0,0,0,.21.4.9.9,0,0,0,.38.25,1.36,1.36,0,0,0,.51.09,1.78,1.78,0,0,0,.53-.08.9.9,0,0,0,.38-.23.52.52,0,0,0,.13-.37.52.52,0,0,0-.1-.33.78.78,0,0,0-.28-.22,2.07,2.07,0,0,0-.42-.14L35,63.56a1.53,1.53,0,0,1-.83-.42,1.14,1.14,0,0,1-.32-.83,1.25,1.25,0,0,1,.23-.74,1.56,1.56,0,0,1,.63-.5,2.21,2.21,0,0,1,.91-.17,2.27,2.27,0,0,1,1,.19,1.35,1.35,0,0,1,.61.51,1.25,1.25,0,0,1,.21.7h-.8a.9.9,0,0,0-.17-.45.68.68,0,0,0-.36-.23,1.4,1.4,0,0,0-.47-.08,1.44,1.44,0,0,0-.37.05,1.36,1.36,0,0,0-.3.13.7.7,0,0,0-.2.22.65.65,0,0,0-.07.29.5.5,0,0,0,.15.37,1.54,1.54,0,0,0,.58.24l.85.19a1.71,1.71,0,0,1,.64.24,1.25,1.25,0,0,1,.37.35,1.55,1.55,0,0,1,.17.41,1.94,1.94,0,0,1,0,.4,1.14,1.14,0,0,1-.23.68,1.43,1.43,0,0,1-.64.47,2.45,2.45,0,0,1-1,.18"/><polygon points="42.18 65.69 41.3 65.69 39.95 63.38 39.19 64.27 39.19 65.69 38.36 65.69 38.36 60.95 39.19 60.95 39.19 63.25 41.1 60.95 42.02 60.95 40.52 62.8 42.18 65.69"/><path d="M42.71,65.69,44.42,61h.86L47,65.69h-.8l-.42-1.19H44l-.43,1.19Zm1.42-1.9h1.43l-.71-2.06Zm1.09-4.19h.86l-.94,1h-.59Z"/><path d="M52.73,64a2.37,2.37,0,0,1-.18,1,1.27,1.27,0,0,1-.58.61,2.66,2.66,0,0,1-2.12,0,1.31,1.31,0,0,1-.58-.63,2.43,2.43,0,0,1-.18-1V61h.82v3a1.07,1.07,0,0,0,.27.81,1,1,0,0,0,.73.26,1.27,1.27,0,0,0,.54-.11.84.84,0,0,0,.35-.35,1.23,1.23,0,0,0,.13-.61V61h.8Z"/><polygon points="56.87 60.95 57.66 60.95 57.66 65.69 56.95 65.69 54.56 62.22 54.56 65.69 53.77 65.69 53.77 60.95 54.55 60.95 56.87 64.34 56.87 60.95"/><rect x="58.77" y="60.95" width="0.8" height="4.74"/><polygon points="64.46 60.95 62.8 65.69 61.88 65.69 60.24 60.95 61.01 60.95 62.34 64.77 63.69 60.95 64.46 60.95"/><polygon points="65.14 65.69 65.14 60.95 68.27 60.95 68.27 61.64 65.94 61.64 65.94 62.97 68 62.97 68 63.64 65.94 63.64 65.94 65 68.32 65 68.32 65.69 65.14 65.69"/><path d="M72.71,65.69h-.83l-.82-1.92H70v1.92h-.8V61h1.93a2.08,2.08,0,0,1,.89.17,1.18,1.18,0,0,1,.53.48,1.46,1.46,0,0,1,.17.71,1.35,1.35,0,0,1-.13.64,1.23,1.23,0,0,1-.32.42,1.88,1.88,0,0,1-.42.27Zm-1.8-2.55a1.06,1.06,0,0,0,.7-.21.73.73,0,0,0,.26-.59.68.68,0,0,0-.24-.56.89.89,0,0,0-.62-.2H70v1.56Z"/><polygon points="73.42 65.69 73.42 65.29 75.91 61.63 73.56 61.63 73.56 60.95 77.04 60.95 77.04 61.34 74.52 65.01 77.02 65.01 77.02 65.69 73.42 65.69"/><rect x="77.8" y="60.95" width="0.8" height="4.74"/><polygon points="79.27 61.67 79.27 60.95 82.97 60.95 82.97 61.67 81.55 61.67 81.55 65.69 80.75 65.69 80.75 61.67 79.27 61.67"/><path d="M82.79,65.69,84.49,61h.86l1.71,4.74h-.8l-.43-1.19H84l-.43,1.19Zm1.42-1.9h1.43l-.72-2.06Z"/><polygon points="92.94 60.95 91.29 65.69 90.36 65.69 88.73 60.95 89.5 60.95 90.83 64.77 92.17 60.95 92.94 60.95"/><path d="M94.78,65.69v-.4l2.49-3.66H94.92V61H98.4v.39L95.88,65h2.5v.68Zm1.63-5.13-.84-.8h.63l.49.47.44-.47h.67l-.83.8Z"/><rect x="99.16" y="60.95" width="0.8" height="4.74"/><polygon points="101.06 60.95 101.86 60.95 101.86 65 104 65 104 65.69 101.05 65.69 101.06 60.95"/><rect x="104.75" y="60.95" width="0.8" height="4.74"/><polygon points="109.75 60.95 110.54 60.95 110.54 65.69 109.82 65.69 107.44 62.22 107.44 65.69 106.65 65.69 106.65 60.95 107.42 60.95 109.75 64.34 109.75 60.95"/><polygon points="111.65 65.69 111.65 60.95 114.78 60.95 114.78 61.64 112.45 61.64 112.45 62.97 114.5 62.97 114.5 63.64 112.44 63.64 112.44 65 114.83 65 114.83 65.69 111.65 65.69"/><rect x="53.87" y="52.92" width="24.17" height="0.46"/><path d="M51.73,23.45a1.08,1.08,0,0,1,.32-.81,3.69,3.69,0,0,1,2.38-.56c.41,0,.81,0,1.16,0h.1a29.62,29.62,0,0,1,13.74,5.11c-1,1.16-2.23,2.44-3.64,3.86a32.67,32.67,0,0,0-3.18,3.66,52.43,52.43,0,0,1-9.32-8.89c-.28-.39-.57-.78-.88-1.16a2.77,2.77,0,0,1-.68-1.25m22-5.64a2.35,2.35,0,0,1,1-.27,1.43,1.43,0,0,1,.86.21c0,.49-.41,3-5.93,9.27A30,30,0,0,0,58.3,22.19c3.35-.05,8.23-.72,15.41-4.38m2.78,1.58a11.74,11.74,0,0,1-.64,3.6v.07c-.73,2.72-1.63,6.08-.43,9.53A26.48,26.48,0,0,0,70,27.29c4.81-5.45,5.8-8.13,6-9.18a2.13,2.13,0,0,1,.52,1.28m3.36,19a.81.81,0,0,1-.27,1.42l-.08,0a8.9,8.9,0,0,1-1.2.19c-5.09.27-10.21-1.4-15.31-5a33.47,33.47,0,0,1,3.12-3.61c1.43-1.44,2.65-2.74,3.7-3.92a26.13,26.13,0,0,1,6.1,6.28,13.45,13.45,0,0,0,3.94,4.6m-18.48,6a2.41,2.41,0,0,1-2,.58c-.1-.76-.36-4.42,3.43-9.68a26.14,26.14,0,0,0,12.23,5c-4.23.19-9.81.55-13.68,4.14m-4-1.43a10.63,10.63,0,0,1,0-1.12c-.06-2.67-.22-9.1-3.13-14.41A50.85,50.85,0,0,0,62.44,35c-3.68,5.07-3.66,8.67-3.53,9.82a2.45,2.45,0,0,1-1.52-1.88m-.45.08a2.85,2.85,0,0,0,2.83,2.42,2.89,2.89,0,0,0,1.92-.74c3.88-3.6,9.64-3.85,13.88-4a23.29,23.29,0,0,0,4-.39l.11,0A1.27,1.27,0,0,0,80.63,39a1.25,1.25,0,0,0-.52-1c-6.45-5-4.94-10.68-3.83-14.81l0-.07A12.52,12.52,0,0,0,77,19.33a2.59,2.59,0,0,0-.85-1.75,1.93,1.93,0,0,0-1.45-.5,2.72,2.72,0,0,0-1.15.33c-9.2,4.68-14.57,4.41-17.78,4.26h-.1c-1.29-.06-3-.15-3.88.65a1.51,1.51,0,0,0-.47,1.14A3.18,3.18,0,0,0,52.06,25c4.56,5.49,4.75,13.71,4.82,16.81A8.63,8.63,0,0,0,56.94,43"/></svg>