<svg id="Vrstva_1" data-name="Vrstva 1" xmlns="http://www.w3.org/2000/svg" viewBox="0 0 171.01 56.69"><defs><style>.cls-1{fill:#fff;}</style></defs><polygon class="cls-1" points="59.31 26.2 62.76 26.2 62.76 26.75 59.95 26.75 59.95 28.75 62.5 28.75 62.5 29.3 59.95 29.3 59.95 31.89 59.31 31.89 59.31 26.2"/><path class="cls-1" d="M64.76,31.51a1.32,1.32,0,0,0,.44-.08,1.41,1.41,0,0,0,.4-.22,1.17,1.17,0,0,0,.29-.3.62.62,0,0,0,.12-.35v-.73l-.66,0a3.22,3.22,0,0,0-.84.1.91.91,0,0,0-.49.29.76.76,0,0,0-.16.51.68.68,0,0,0,.25.56,1,1,0,0,0,.65.2m-.17.46a1.71,1.71,0,0,1-.7-.14,1.12,1.12,0,0,1-.46-.4,1.14,1.14,0,0,1-.17-.63,1.16,1.16,0,0,1,.46-1,2.71,2.71,0,0,1,1.5-.35l.79,0v-.34a.85.85,0,0,0-.24-.63,1,1,0,0,0-.75-.24,1.15,1.15,0,0,0-.65.18A.8.8,0,0,0,64,29h-.56a1.26,1.26,0,0,1,.22-.65,1.18,1.18,0,0,1,.54-.41,2.17,2.17,0,0,1,.84-.15,2.12,2.12,0,0,1,.85.15,1.13,1.13,0,0,1,.52.44,1.39,1.39,0,0,1,.18.73v2.83h-.53l0-.78a1.45,1.45,0,0,1-.62.67,1.74,1.74,0,0,1-.82.19"/><polygon class="cls-1" points="71.19 31.89 70.52 31.89 69.2 29.77 68.32 30.67 68.32 31.89 67.71 31.89 67.71 26.04 68.32 26.04 68.32 29.95 70.35 27.82 71.07 27.82 69.61 29.35 71.19 31.89"/><path class="cls-1" d="M73.42,32a2.43,2.43,0,0,1-.61-.09,1.37,1.37,0,0,1-.49-.27,1.07,1.07,0,0,1-.34-.44,1.4,1.4,0,0,1-.12-.6V27.82h.61v2.69a1,1,0,0,0,.26.7,1.34,1.34,0,0,0,1.57,0,.92.92,0,0,0,.3-.75V27.82h.61v4.07h-.5l-.06-.77a1.1,1.1,0,0,1-.25.48,1.19,1.19,0,0,1-.42.28,1.64,1.64,0,0,1-.56.09"/><path class="cls-1" d="M77.22,31.93a1.34,1.34,0,0,1-.48-.08.76.76,0,0,1-.29-.24.79.79,0,0,1-.14-.34,1.75,1.75,0,0,1,0-.4V26h.6v4.77a.78.78,0,0,0,.13.49.42.42,0,0,0,.33.17h.23v.4l-.18,0h-.16"/><path class="cls-1" d="M80.12,28.28H79.2v2.63a1,1,0,0,0,0,.34.25.25,0,0,0,.16.14,1.42,1.42,0,0,0,.33,0h.42v.42a.89.89,0,0,1-.23.05l-.35,0a1.37,1.37,0,0,1-.6-.11.6.6,0,0,1-.3-.33,1.45,1.45,0,0,1-.09-.54V28.28h-.66v-.46h.67l.15-1.17h.46v1.17h.92Z"/><path class="cls-1" d="M82.33,31.51a1.32,1.32,0,0,0,.44-.08,1.41,1.41,0,0,0,.4-.22,1.17,1.17,0,0,0,.29-.3.7.7,0,0,0,.12-.35v-.73l-.66,0a3.16,3.16,0,0,0-.84.1.91.91,0,0,0-.49.29.76.76,0,0,0-.16.51.68.68,0,0,0,.25.56,1,1,0,0,0,.65.2m-.17.46a1.71,1.71,0,0,1-.7-.14,1.06,1.06,0,0,1-.46-.4,1.29,1.29,0,0,1,.29-1.63,2.71,2.71,0,0,1,1.5-.35l.79,0v-.34a.85.85,0,0,0-.24-.63,1.06,1.06,0,0,0-.75-.24,1.21,1.21,0,0,0-.66.18.82.82,0,0,0-.35.56H81a1.26,1.26,0,0,1,.22-.65,1.18,1.18,0,0,1,.54-.41,2.17,2.17,0,0,1,.84-.15,2.12,2.12,0,0,1,.85.15,1.13,1.13,0,0,1,.52.44,1.39,1.39,0,0,1,.18.73v2.83h-.53l0-.78a1.51,1.51,0,0,1-.62.67,1.77,1.77,0,0,1-.82.19"/><path class="cls-1" d="M87.17,31.89V27.82h.58v.74a1.11,1.11,0,0,1,.29-.47,1,1,0,0,1,.42-.26,1.27,1.27,0,0,1,.47-.09l.2,0a.26.26,0,0,1,.14,0v.6a.34.34,0,0,0-.16,0l-.18,0a2,2,0,0,0-.42,0,1,1,0,0,0-.37.15.73.73,0,0,0-.26.29,1,1,0,0,0-.1.46v2.61Z"/><path class="cls-1" d="M90.07,31.89h.6V27.82h-.6Zm0-5h.64V26.2H90Z"/><path class="cls-1" d="M93.1,31.51a1.31,1.31,0,0,0,.43-.08,1.41,1.41,0,0,0,.4-.22,1.17,1.17,0,0,0,.29-.3.62.62,0,0,0,.12-.35v-.73l-.66,0a3.22,3.22,0,0,0-.84.1,1,1,0,0,0-.49.29.76.76,0,0,0-.16.51.68.68,0,0,0,.25.56,1.06,1.06,0,0,0,.66.2m-.18.46a1.67,1.67,0,0,1-.69-.14,1.09,1.09,0,0,1-.47-.4,1.14,1.14,0,0,1-.17-.63,1.16,1.16,0,0,1,.46-1,2.71,2.71,0,0,1,1.5-.35l.79,0v-.34a.85.85,0,0,0-.24-.63,1,1,0,0,0-.75-.24,1.15,1.15,0,0,0-.65.18.8.8,0,0,0-.36.56h-.56A1.26,1.26,0,0,1,92,28.3a1.18,1.18,0,0,1,.54-.41,2.17,2.17,0,0,1,.84-.15,2.12,2.12,0,0,1,.85.15,1.13,1.13,0,0,1,.52.44,1.39,1.39,0,0,1,.18.73v2.83H94.4l0-.78a1.45,1.45,0,0,1-.62.67,1.74,1.74,0,0,1-.82.19"/><path class="cls-1" d="M97.64,31.48a1.07,1.07,0,0,0,1-.4,2.23,2.23,0,0,0,.28-1.28,2.32,2.32,0,0,0-.13-.84,1,1,0,0,0-.38-.54,1.21,1.21,0,0,0-.7-.19,1.11,1.11,0,0,0-.87.38,1.78,1.78,0,0,0-.33,1.19,2.17,2.17,0,0,0,.3,1.23,1,1,0,0,0,.88.45m-.09.49a1.56,1.56,0,0,1-1.25-.54,2.38,2.38,0,0,1-.47-1.59,2.85,2.85,0,0,1,.19-1.1,1.61,1.61,0,0,1,.55-.74,1.63,1.63,0,0,1,.94-.26,1.82,1.82,0,0,1,.55.08,1.51,1.51,0,0,1,.4.21,1.64,1.64,0,0,1,.27.24,2.43,2.43,0,0,1,.14.22V26h.62v5.85H99L99,31.06l-.12.26a1.58,1.58,0,0,1-.24.3,1.42,1.42,0,0,1-.42.25,1.83,1.83,0,0,1-.62.1"/><path class="cls-1" d="M101,29.56h2.36a1.83,1.83,0,0,0-.12-.68,1.06,1.06,0,0,0-1-.66,1.15,1.15,0,0,0-.69.2,1.17,1.17,0,0,0-.39.51,1.51,1.51,0,0,0-.13.63m0,.44a2,2,0,0,0,.13.74,1.3,1.3,0,0,0,.41.54,1.24,1.24,0,0,0,.71.2,1.29,1.29,0,0,0,.72-.2.86.86,0,0,0,.37-.55H104a1.32,1.32,0,0,1-.33.68,1.42,1.42,0,0,1-.6.42,2,2,0,0,1-.74.14,1.92,1.92,0,0,1-1-.25,1.68,1.68,0,0,1-.66-.71,2.41,2.41,0,0,1-.24-1.12,2.65,2.65,0,0,1,.22-1.13,1.61,1.61,0,0,1,.63-.75,1.74,1.74,0,0,1,1-.27,1.79,1.79,0,0,1,1,.24,1.68,1.68,0,0,1,.6.69,2.69,2.69,0,0,1,.2,1.07V30Z"/><path class="cls-1" d="M104.89,31.89V27.82h.59v.59a1.43,1.43,0,0,1,.29-.32,1.27,1.27,0,0,1,.43-.24,1.76,1.76,0,0,1,.58-.09,1.72,1.72,0,0,1,.72.15,1.23,1.23,0,0,1,.52.49,1.57,1.57,0,0,1,.19.83v2.66h-.61v-2.6a1,1,0,0,0-.27-.77,1,1,0,0,0-.69-.25,1.5,1.5,0,0,0-.56.1,1,1,0,0,0-.42.29.73.73,0,0,0-.15.48v2.75Z"/><path class="cls-1" d="M109.31,31.89h.59V27.82h-.59Zm0-5h.64V26.2h-.64Z"/><path class="cls-1" d="M112.33,31.51a1.32,1.32,0,0,0,.44-.08,1.41,1.41,0,0,0,.4-.22,1.17,1.17,0,0,0,.29-.3.7.7,0,0,0,.12-.35v-.73l-.66,0a3.3,3.3,0,0,0-.85.1.91.91,0,0,0-.48.29.76.76,0,0,0-.16.51.68.68,0,0,0,.25.56,1,1,0,0,0,.65.2m-.17.46a1.68,1.68,0,0,1-.7-.14,1.08,1.08,0,0,1-.63-1,1.14,1.14,0,0,1,.46-1,2.71,2.71,0,0,1,1.5-.35l.79,0v-.34a.82.82,0,0,0-.25-.63,1,1,0,0,0-.74-.24,1.21,1.21,0,0,0-.66.18.82.82,0,0,0-.35.56H111a1.26,1.26,0,0,1,.22-.65,1.18,1.18,0,0,1,.54-.41,2.46,2.46,0,0,1,1.69,0,1.13,1.13,0,0,1,.52.44,1.39,1.39,0,0,1,.18.73v2.83h-.53l0-.78a1.51,1.51,0,0,1-.62.67,1.77,1.77,0,0,1-.82.19"/><path class="cls-1" d="M60.44,40a1.31,1.31,0,0,0,.44-.07,1.71,1.71,0,0,0,.4-.22,1.21,1.21,0,0,0,.29-.31.67.67,0,0,0,.12-.34v-.73H61a3.25,3.25,0,0,0-.85.11,1,1,0,0,0-.48.28.76.76,0,0,0-.16.51.66.66,0,0,0,.25.56,1,1,0,0,0,.65.2m-.17.46a1.54,1.54,0,0,1-.7-.14,1,1,0,0,1-.46-.39,1.1,1.1,0,0,1-.17-.63,1.13,1.13,0,0,1,.46-1A2.79,2.79,0,0,1,60.9,38l.79,0v-.34a.84.84,0,0,0-.25-.64,1.06,1.06,0,0,0-.74-.23,1.21,1.21,0,0,0-.66.18.8.8,0,0,0-.35.56h-.56a1.27,1.27,0,0,1,.22-.66,1.34,1.34,0,0,1,.54-.41,2.34,2.34,0,0,1,.84-.14,2.12,2.12,0,0,1,.85.15,1,1,0,0,1,.52.44,1.33,1.33,0,0,1,.18.72v2.84h-.53l0-.79a1.48,1.48,0,0,1-.62.68,1.89,1.89,0,0,1-.82.18"/><path class="cls-1" d="M65.36,40.42H66V36.35h-.6Zm0-5H66v-.68h-.64Z"/><path class="cls-1" d="M67.1,40.42V36.35h.59v.59a1.23,1.23,0,0,1,.28-.33,1.43,1.43,0,0,1,.44-.24,1.76,1.76,0,0,1,.58-.09,1.73,1.73,0,0,1,.72.16,1.15,1.15,0,0,1,.52.48,1.63,1.63,0,0,1,.19.84v2.66h-.61V37.81a1,1,0,0,0-.27-.76,1,1,0,0,0-.69-.25,1.69,1.69,0,0,0-.56.09,1.06,1.06,0,0,0-.42.29.76.76,0,0,0-.15.48v2.76Z"/><path class="cls-1" d="M73.61,36.35v.46h-1v3.61H72V36.81h-.89v-.46H72V35.7a1,1,0,0,1,.24-.73,1,1,0,0,1,.72-.24h.72v.44H73a.4.4,0,0,0-.35.14.82.82,0,0,0-.09.42v.62Z"/><path class="cls-1" d="M75.9,40a1.08,1.08,0,0,0,.65-.19,1.16,1.16,0,0,0,.41-.55,2.31,2.31,0,0,0,.15-.88,2.37,2.37,0,0,0-.13-.83,1.2,1.2,0,0,0-.39-.58,1.09,1.09,0,0,0-.69-.21,1.17,1.17,0,0,0-.66.19,1.08,1.08,0,0,0-.42.55,2.31,2.31,0,0,0-.15.88,2.37,2.37,0,0,0,.13.83,1.26,1.26,0,0,0,.4.58,1.1,1.1,0,0,0,.7.21m0,.49a1.91,1.91,0,0,1-1-.23,1.58,1.58,0,0,1-.64-.71,2.51,2.51,0,0,1-.23-1.15,2.76,2.76,0,0,1,.21-1.12,1.7,1.7,0,0,1,.62-.75,1.87,1.87,0,0,1,1-.26,1.85,1.85,0,0,1,1,.24,1.59,1.59,0,0,1,.63.72,2.68,2.68,0,0,1,.23,1.17,2.65,2.65,0,0,1-.21,1.09,1.59,1.59,0,0,1-.61.74,1.73,1.73,0,0,1-1,.26"/><path class="cls-1" d="M78.6,40.42V36.35h.58v.73a1.13,1.13,0,0,1,.29-.46,1.17,1.17,0,0,1,.42-.27,1.55,1.55,0,0,1,.47-.08h.2a.53.53,0,0,1,.15,0v.59l-.17,0h-.18a1.49,1.49,0,0,0-.42,0,1.2,1.2,0,0,0-.37.15.83.83,0,0,0-.26.3.88.88,0,0,0-.1.45v2.62Z"/><path class="cls-1" d="M81.45,40.42V36.35H82v.59a1.54,1.54,0,0,1,.45-.47,1.29,1.29,0,0,1,.76-.2,1.43,1.43,0,0,1,.46.07,1.37,1.37,0,0,1,.43.23.87.87,0,0,1,.29.37,1.36,1.36,0,0,1,.52-.49,1.44,1.44,0,0,1,.73-.18,1.72,1.72,0,0,1,.44.06,1.26,1.26,0,0,1,.43.22,1.16,1.16,0,0,1,.33.46,2,2,0,0,1,.12.75v2.66h-.61V37.81a1.3,1.3,0,0,0-.13-.62.64.64,0,0,0-.33-.3,1,1,0,0,0-.43-.09,1.16,1.16,0,0,0-.43.08.84.84,0,0,0-.38.26.77.77,0,0,0-.16.52v2.76h-.62V37.57a.69.69,0,0,0-.13-.43.78.78,0,0,0-.34-.25.93.93,0,0,0-.4-.09,1.24,1.24,0,0,0-.45.09.78.78,0,0,0-.37.28.75.75,0,0,0-.15.49v2.76Z"/><path class="cls-1" d="M89.34,40a1.31,1.31,0,0,0,.44-.07,1.71,1.71,0,0,0,.4-.22,1.21,1.21,0,0,0,.29-.31.67.67,0,0,0,.12-.34v-.73h-.66a3.11,3.11,0,0,0-.84.11,1,1,0,0,0-.49.28.76.76,0,0,0-.16.51.66.66,0,0,0,.25.56,1,1,0,0,0,.65.2m-.17.46a1.56,1.56,0,0,1-.7-.14A1,1,0,0,1,88,40a1.19,1.19,0,0,1-.17-.63,1.13,1.13,0,0,1,.46-1A2.79,2.79,0,0,1,89.8,38l.79,0v-.34a.88.88,0,0,0-.24-.64,1.1,1.1,0,0,0-.75-.23,1.21,1.21,0,0,0-.66.18.8.8,0,0,0-.35.56H88a1.27,1.27,0,0,1,.22-.66,1.34,1.34,0,0,1,.54-.41,2.38,2.38,0,0,1,.84-.14,2.12,2.12,0,0,1,.85.15,1,1,0,0,1,.52.44,1.33,1.33,0,0,1,.18.72v2.84h-.53l0-.79a1.48,1.48,0,0,1-.62.68,1.89,1.89,0,0,1-.82.18"/><path class="cls-1" d="M94.17,36.81h-.92v2.62a1,1,0,0,0,0,.35.21.21,0,0,0,.16.13,1.27,1.27,0,0,0,.32,0h.42v.43a.87.87,0,0,1-.22,0,1.94,1.94,0,0,1-.36,0,1.37,1.37,0,0,1-.6-.11.61.61,0,0,1-.3-.33,1.38,1.38,0,0,1-.09-.54V36.81H92v-.46h.68l.14-1.18h.46v1.17h.92Z"/><path class="cls-1" d="M95.08,40.42h.6V36.35h-.6Zm0-5h.64v-.68h-.64Z"/><polygon class="cls-1" points="100.29 40.42 99.62 40.42 98.3 38.3 97.42 39.2 97.42 40.42 96.81 40.42 96.81 34.57 97.42 34.57 97.42 38.48 99.45 36.35 100.17 36.35 98.71 37.88 100.29 40.42"/><path class="cls-1" d="M101.54,41.71a1.64,1.64,0,0,1-.58-.09v-.4h.41a1.31,1.31,0,0,0,.37,0,.75.75,0,0,0,.24-.1.7.7,0,0,0,.14-.16l.09-.17.16-.42-1.59-4h.62l1.26,3.27,1.25-3.27h.6l-1.73,4.45a1.78,1.78,0,0,1-.33.55,1,1,0,0,1-.41.28,1.35,1.35,0,0,1-.5.08"/><path class="cls-1" d="M60.64,17.05l-.85-.8h.64l.48.47.45-.47H62l-.83.8ZM59,22.19v-.4l2.49-3.66H59.14v-.68h3.49v.39L60.1,21.51h2.5v.68Z"/><rect class="cls-1" x="63.38" y="17.45" width="0.8" height="4.74"/><polygon class="cls-1" points="65.29 17.45 66.09 17.45 66.09 21.5 68.23 21.5 68.23 22.19 65.28 22.19 65.29 17.45"/><rect class="cls-1" x="68.98" y="17.45" width="0.8" height="4.74"/><polygon class="cls-1" points="73.98 17.45 74.78 17.45 74.78 22.19 74.06 22.19 71.68 18.71 71.68 22.19 70.88 22.19 70.88 17.45 71.66 17.45 73.98 20.84 73.98 17.45"/><path class="cls-1" d="M77.56,22.26a2.52,2.52,0,0,1-.67-.09,2,2,0,0,1-.6-.26,1.39,1.39,0,0,1-.44-.43,1.31,1.31,0,0,1-.22-.6h.83a.77.77,0,0,0,.21.41,1.14,1.14,0,0,0,.38.25,1.6,1.6,0,0,0,.51.08,1.78,1.78,0,0,0,.53-.08.9.9,0,0,0,.38-.23.53.53,0,0,0,.14-.37.52.52,0,0,0-.11-.33.71.71,0,0,0-.28-.22,2.07,2.07,0,0,0-.42-.14l-.88-.19a1.53,1.53,0,0,1-.83-.42,1.15,1.15,0,0,1-.32-.83,1.3,1.3,0,0,1,.23-.75,1.63,1.63,0,0,1,.63-.49,2.21,2.21,0,0,1,.91-.18,2.27,2.27,0,0,1,1,.2,1.37,1.37,0,0,1,.62.51,1.33,1.33,0,0,1,.21.7h-.81a.9.9,0,0,0-.17-.45.79.79,0,0,0-.35-.24,1.85,1.85,0,0,0-.48-.07,1.44,1.44,0,0,0-.37.05,1,1,0,0,0-.3.13.7.7,0,0,0-.2.22.64.64,0,0,0-.07.28.48.48,0,0,0,.16.38,1.41,1.41,0,0,0,.57.24l.85.19a1.91,1.91,0,0,1,.64.23,1.41,1.41,0,0,1,.37.36,1.28,1.28,0,0,1,.17.41,1.94,1.94,0,0,1,0,.4,1.11,1.11,0,0,1-.22.68,1.52,1.52,0,0,1-.65.47,2.42,2.42,0,0,1-1,.18"/><polygon class="cls-1" points="84.13 22.19 83.25 22.19 81.89 19.88 81.14 20.77 81.14 22.19 80.31 22.19 80.31 17.45 81.14 17.45 81.14 19.75 83.04 17.45 83.97 17.45 82.47 19.3 84.13 22.19"/><path class="cls-1" d="M87.17,16.1H88l-.94.95H86.5Zm-1.09,4.19h1.43l-.71-2.06Zm-1.42,1.9,1.71-4.74h.86l1.7,4.74h-.8L87.71,21H85.9l-.44,1.19Z"/><path class="cls-1" d="M94.69,20.46a2.21,2.21,0,0,1-.19,1,1.29,1.29,0,0,1-.58.62,2.3,2.3,0,0,1-1.06.21A2.17,2.17,0,0,1,91.8,22a1.27,1.27,0,0,1-.58-.63,2.43,2.43,0,0,1-.18-1v-3h.82V20.5a1.07,1.07,0,0,0,.27.81,1,1,0,0,0,.73.26,1.13,1.13,0,0,0,.54-.11.81.81,0,0,0,.36-.35,1.35,1.35,0,0,0,.12-.61V17.45h.81Z"/><polygon class="cls-1" points="98.83 17.45 99.62 17.45 99.62 22.19 98.91 22.19 96.52 18.71 96.52 22.19 95.72 22.19 95.72 17.45 96.5 17.45 98.83 20.84 98.83 17.45"/><rect class="cls-1" x="100.73" y="17.45" width="0.8" height="4.74"/><polygon class="cls-1" points="106.42 17.45 104.77 22.19 103.84 22.19 102.21 17.45 102.98 17.45 104.31 21.27 105.65 17.45 106.42 17.45"/><polygon class="cls-1" points="107.11 22.19 107.11 17.45 110.24 17.45 110.24 18.14 107.91 18.14 107.91 19.47 109.97 19.47 109.97 20.14 107.9 20.14 107.9 21.5 110.29 21.5 110.29 22.19 107.11 22.19"/><path class="cls-1" d="M112.88,19.64a1.06,1.06,0,0,0,.7-.21.73.73,0,0,0,.26-.59.72.72,0,0,0-.24-.57.92.92,0,0,0-.62-.2h-1v1.57Zm1.8,2.55h-.83L113,20.27h-1.1v1.92h-.8V17.45h1.93a2.16,2.16,0,0,1,.9.17,1.15,1.15,0,0,1,.52.48,1.46,1.46,0,0,1,.17.71,1.35,1.35,0,0,1-.13.64,1.23,1.23,0,0,1-.32.42,1.54,1.54,0,0,1-.42.26Z"/><polygon class="cls-1" points="115.39 22.19 115.39 21.79 117.89 18.13 115.53 18.13 115.53 17.45 119.02 17.45 119.02 17.84 116.5 21.51 118.99 21.51 118.99 22.19 115.39 22.19"/><rect class="cls-1" x="119.77" y="17.45" width="0.8" height="4.74"/><polygon class="cls-1" points="121.25 18.17 121.25 17.45 124.95 17.45 124.95 18.17 123.53 18.17 123.53 22.19 122.73 22.19 122.73 18.17 121.25 18.17"/><path class="cls-1" d="M126.19,20.29h1.43l-.71-2.06Zm-1.42,1.9,1.7-4.74h.87l1.7,4.74h-.8L127.82,21H126l-.44,1.19Z"/><polygon class="cls-1" points="134.93 17.45 133.28 22.19 132.35 22.19 130.72 17.45 131.49 17.45 132.81 21.27 134.16 17.45 134.93 17.45"/><path class="cls-1" d="M138.4,17.05l-.84-.8h.63l.49.47.44-.47h.67l-.83.8Zm-1.63,5.14v-.4l2.49-3.66h-2.35v-.68h3.48v.39l-2.52,3.67h2.5v.68Z"/><rect class="cls-1" x="141.15" y="17.45" width="0.8" height="4.74"/><polygon class="cls-1" points="143.05 17.45 143.86 17.45 143.86 21.5 146 21.5 146 22.19 143.05 22.19 143.05 17.45"/><rect class="cls-1" x="146.75" y="17.45" width="0.8" height="4.74"/><polygon class="cls-1" points="151.75 17.45 152.54 17.45 152.54 22.19 151.83 22.19 149.44 18.71 149.44 22.19 148.65 22.19 148.65 17.45 149.43 17.45 151.75 20.84 151.75 17.45"/><polygon class="cls-1" points="153.65 22.19 153.65 17.45 156.79 17.45 156.78 18.14 154.46 18.14 154.46 19.47 156.51 19.47 156.51 20.14 154.45 20.14 154.45 21.5 156.83 21.5 156.83 22.19 153.65 22.19"/><rect class="cls-1" x="51.03" y="16.25" width="0.46" height="24.17"/><path class="cls-1" d="M43,35.09c-6.45-5-4.94-10.69-3.83-14.81l0-.07a12.52,12.52,0,0,0,.65-3.78A2.57,2.57,0,0,0,39,14.68a1.92,1.92,0,0,0-1.44-.5,2.85,2.85,0,0,0-1.16.32c-9.2,4.69-14.57,4.42-17.78,4.26h-.1c-1.28-.06-3-.15-3.88.65a1.49,1.49,0,0,0-.47,1.14A3.32,3.32,0,0,0,15,22.1c4.56,5.48,4.75,13.71,4.82,16.81a8.75,8.75,0,0,0,.06,1.19,2.85,2.85,0,0,0,2.83,2.42,2.89,2.89,0,0,0,1.92-.74c3.88-3.6,9.64-3.85,13.88-4a22.47,22.47,0,0,0,4-.38l.11,0a1.28,1.28,0,0,0,.92-1.22A1.25,1.25,0,0,0,43,35.09Zm-3.62-18.6a12,12,0,0,1-.63,3.6l0,.07c-.73,2.73-1.63,6.1-.41,9.54a26.61,26.61,0,0,0-5.44-5.31c4.81-5.45,5.8-8.13,6-9.18A2.13,2.13,0,0,1,39.39,16.49Zm-2.78-1.58a2.35,2.35,0,0,1,1-.27,1.43,1.43,0,0,1,.86.21c0,.49-.4,3-5.93,9.27A30,30,0,0,0,21.2,19.29C24.55,19.24,29.42,18.57,36.61,14.91Zm-22,5.64a1.08,1.08,0,0,1,.32-.81,3.7,3.7,0,0,1,2.38-.56c.41,0,.82,0,1.16,0h.1a29.51,29.51,0,0,1,13.74,5.11c-1,1.15-2.23,2.43-3.64,3.86a33.6,33.6,0,0,0-3.17,3.67,53.46,53.46,0,0,1-9.35-8.92,13.09,13.09,0,0,0-.86-1.14A2.77,2.77,0,0,1,14.63,20.55ZM20.29,40a10.22,10.22,0,0,1-.05-1.11c-.06-2.67-.22-9.1-3.13-14.41a51.87,51.87,0,0,0,8.24,7.6c-3.68,5.07-3.67,8.67-3.54,9.81A2.45,2.45,0,0,1,20.29,40Zm4,1.44a2.42,2.42,0,0,1-1.6.61,2.31,2.31,0,0,1-.37,0c-.11-.73-.38-4.39,3.43-9.67a26.19,26.19,0,0,0,12.22,5C33.72,37.5,28.14,37.86,24.27,41.45Zm18.21-4.56-.08,0a8.58,8.58,0,0,1-1,.18c-5.14.31-10.31-1.34-15.46-5A31.54,31.54,0,0,1,29,28.51c1.42-1.44,2.64-2.74,3.69-3.92A26.18,26.18,0,0,1,38.87,31a13.57,13.57,0,0,0,3.88,4.52.81.81,0,0,1-.27,1.42Z"/></svg>