<svg id="Vrstva_1" data-name="Vrstva 1" xmlns="http://www.w3.org/2000/svg" viewBox="8 10 130.14 86.1"><polygon points="17.03 69.66 17.03 75.35 17.67 75.35 17.67 72.75 20.22 72.75 20.22 72.21 17.67 72.21 17.67 70.21 20.48 70.21 20.48 69.66 17.03 69.66"/><path d="M22.31,75.42a1.56,1.56,0,0,1-.7-.14,1,1,0,0,1-.46-.39,1.19,1.19,0,0,1-.17-.63,1.15,1.15,0,0,1,.46-1,2.79,2.79,0,0,1,1.5-.36l.79,0v-.34a.82.82,0,0,0-.25-.63,1,1,0,0,0-.74-.24,1.21,1.21,0,0,0-.66.18.8.8,0,0,0-.35.56h-.56a1.23,1.23,0,0,1,.22-.65,1.27,1.27,0,0,1,.54-.42,2.38,2.38,0,0,1,.84-.14,2.12,2.12,0,0,1,.85.15,1.08,1.08,0,0,1,.52.44,1.36,1.36,0,0,1,.18.73v2.82h-.53l0-.78a1.48,1.48,0,0,1-.62.68,1.89,1.89,0,0,1-.82.18m.17-.46a1.31,1.31,0,0,0,.44-.07,1.71,1.71,0,0,0,.4-.22,1.21,1.21,0,0,0,.29-.31.67.67,0,0,0,.12-.34v-.73h-.66a3.11,3.11,0,0,0-.84.11.91.91,0,0,0-.49.29.73.73,0,0,0-.16.51.66.66,0,0,0,.25.55,1,1,0,0,0,.65.2"/><path d="M27.05,71.2a1.7,1.7,0,0,1,.76.16,1.4,1.4,0,0,1,.57.45,1.47,1.47,0,0,1,.29.7h-.56a1.07,1.07,0,0,0-.18-.41.94.94,0,0,0-.36-.29,1.19,1.19,0,0,0-.51-.1,1.17,1.17,0,0,0-.91.39,1.83,1.83,0,0,0-.34,1.22,2,2,0,0,0,.31,1.18,1.1,1.1,0,0,0,.94.44,1.21,1.21,0,0,0,.52-.11,1.12,1.12,0,0,0,.36-.29.84.84,0,0,0,.17-.4h.55a1.42,1.42,0,0,1-.28.69,1.54,1.54,0,0,1-.57.44,1.87,1.87,0,0,1-.76.15,1.9,1.9,0,0,1-1-.23,1.61,1.61,0,0,1-.65-.71,2.63,2.63,0,0,1-.23-1.16,2.75,2.75,0,0,1,.21-1.11,1.67,1.67,0,0,1,.62-.74,1.81,1.81,0,0,1,1-.27"/><path d="M31,75.42a2,2,0,0,1-.61-.09,1.49,1.49,0,0,1-.5-.26,1.22,1.22,0,0,1-.33-.44,1.44,1.44,0,0,1-.12-.61V71.28h.61V74a1,1,0,0,0,.26.69,1.07,1.07,0,0,0,.8.27,1.12,1.12,0,0,0,.77-.25,1,1,0,0,0,.29-.76V71.28h.61v4.06h-.49l-.07-.77a1,1,0,0,1-.24.48,1.17,1.17,0,0,1-.43.29,1.38,1.38,0,0,1-.55.08"/><path d="M34.83,75.39a1.06,1.06,0,0,1-.47-.09.57.57,0,0,1-.29-.23,1,1,0,0,1-.15-.34,2.71,2.71,0,0,1,0-.41V69.5h.61v4.77a.8.8,0,0,0,.12.49.49.49,0,0,0,.33.17h.23v.4a.47.47,0,0,1-.17,0l-.17,0"/><path d="M37.73,71.74h-.92v2.62a.81.81,0,0,0,0,.35.21.21,0,0,0,.16.13,1.27,1.27,0,0,0,.32,0h.42v.43a1,1,0,0,1-.23,0l-.35,0a1.37,1.37,0,0,1-.6-.11.61.61,0,0,1-.3-.33,1.38,1.38,0,0,1-.09-.54V71.74h-.66v-.46h.68l.14-1.17h.46v1.17h.92Z"/><path d="M39.12,76.64a1.64,1.64,0,0,1-.58-.09v-.4H39a1.31,1.31,0,0,0,.37,0,.61.61,0,0,0,.23-.1.75.75,0,0,0,.15-.16l.09-.16.16-.43-1.59-4H39l1.26,3.27,1.25-3.27h.6l-1.73,4.45a2,2,0,0,1-.33.55,1.11,1.11,0,0,1-.41.28,1.59,1.59,0,0,1-.5.08"/><path d="M46.2,75.42a2,2,0,0,1-1-.23,1.58,1.58,0,0,1-.64-.71,2.65,2.65,0,0,1-.23-1.15,2.76,2.76,0,0,1,.21-1.12,1.62,1.62,0,0,1,.62-.74,1.79,1.79,0,0,1,1-.27,1.85,1.85,0,0,1,1,.24,1.59,1.59,0,0,1,.63.72A2.68,2.68,0,0,1,48,73.33a2.65,2.65,0,0,1-.21,1.09,1.59,1.59,0,0,1-.61.74,1.73,1.73,0,0,1-1,.26m0-.49a1.08,1.08,0,0,0,.65-.19,1.16,1.16,0,0,0,.41-.55,2.28,2.28,0,0,0,.15-.88,2.41,2.41,0,0,0-.13-.83,1.17,1.17,0,0,0-.39-.57,1.09,1.09,0,0,0-.69-.21,1.16,1.16,0,0,0-.66.18,1.18,1.18,0,0,0-.42.55,2.31,2.31,0,0,0-.15.88,2.63,2.63,0,0,0,.13.83,1.34,1.34,0,0,0,.4.58,1.1,1.1,0,0,0,.7.21"/><path d="M51,71.28v.46H50v3.61h-.61V71.74h-.89v-.46h.89v-.65a1,1,0,0,1,.24-.72.9.9,0,0,1,.71-.25H51v.45h-.62a.37.37,0,0,0-.35.14.77.77,0,0,0-.09.42v.61Z"/><polygon points="53.81 75.34 53.81 69.66 54.64 69.66 56.46 74.53 58.32 69.66 59.14 69.66 59.14 75.34 58.5 75.34 58.5 70.68 56.77 75.34 56.16 75.34 54.45 70.73 54.45 75.34 53.81 75.34"/><path d="M61.49,75.42a1.54,1.54,0,0,1-.7-.14,1,1,0,0,1-.46-.39,1.19,1.19,0,0,1-.17-.63,1.13,1.13,0,0,1,.46-1,2.79,2.79,0,0,1,1.5-.36l.78,0v-.34a.85.85,0,0,0-.24-.63,1,1,0,0,0-.74-.24,1.21,1.21,0,0,0-.66.18.8.8,0,0,0-.35.56h-.56a1.23,1.23,0,0,1,.22-.65,1.27,1.27,0,0,1,.54-.42A2.3,2.3,0,0,1,62,71.2a2.15,2.15,0,0,1,.85.15,1.08,1.08,0,0,1,.52.44,1.46,1.46,0,0,1,.17.73v2.82H63l0-.78a1.43,1.43,0,0,1-.62.68,1.85,1.85,0,0,1-.81.18m.17-.46a1.35,1.35,0,0,0,.44-.07,1.71,1.71,0,0,0,.4-.22,1.21,1.21,0,0,0,.29-.31A.65.65,0,0,0,62.9,74v-.73h-.65a3.19,3.19,0,0,0-.85.11.91.91,0,0,0-.48.29.73.73,0,0,0-.16.51.66.66,0,0,0,.25.55,1,1,0,0,0,.65.2"/><path d="M64.61,75.35V71.28h.59v.59a1.34,1.34,0,0,1,.71-.56,1.83,1.83,0,0,1,.59-.09,1.64,1.64,0,0,1,.71.15,1.2,1.2,0,0,1,.52.48,1.63,1.63,0,0,1,.19.84v2.66h-.61v-2.6a1,1,0,0,0-.26-.77,1,1,0,0,0-.7-.25,1.5,1.5,0,0,0-.56.1.86.86,0,0,0-.41.28.72.72,0,0,0-.16.49v2.75Z"/><path d="M70.09,75.42a1.56,1.56,0,0,1-.7-.14,1.1,1.1,0,0,1-.46-.39,1.19,1.19,0,0,1-.17-.63,1.15,1.15,0,0,1,.46-1,2.79,2.79,0,0,1,1.5-.36l.79,0v-.34a.85.85,0,0,0-.24-.63,1.06,1.06,0,0,0-.75-.24,1.15,1.15,0,0,0-.65.18.78.78,0,0,0-.36.56H69a1.23,1.23,0,0,1,.22-.65,1.27,1.27,0,0,1,.54-.42,2.38,2.38,0,0,1,.84-.14,2.12,2.12,0,0,1,.85.15,1.08,1.08,0,0,1,.52.44,1.36,1.36,0,0,1,.18.73v2.82h-.53l0-.78a1.48,1.48,0,0,1-.62.68,1.89,1.89,0,0,1-.82.18m.17-.46a1.31,1.31,0,0,0,.44-.07,1.71,1.71,0,0,0,.4-.22,1.21,1.21,0,0,0,.29-.31.67.67,0,0,0,.12-.34v-.73h-.66a3.11,3.11,0,0,0-.84.11.91.91,0,0,0-.49.29.73.73,0,0,0-.16.51.66.66,0,0,0,.25.55,1,1,0,0,0,.65.2"/><path d="M74.86,76.69a3.06,3.06,0,0,1-1.45-.28.87.87,0,0,1-.53-.81.74.74,0,0,1,.1-.38,1.05,1.05,0,0,1,.24-.27,1.69,1.69,0,0,1,.27-.17.64.64,0,0,0,.16-.1l-.17-.1a.43.43,0,0,1-.16-.14.4.4,0,0,1-.07-.24.45.45,0,0,1,.17-.34,1.1,1.1,0,0,1,.52-.24,1.58,1.58,0,0,1-.55-.47,1.18,1.18,0,0,1,0-1.33,1.31,1.31,0,0,1,.59-.45,2.52,2.52,0,0,1,.93-.15,2.1,2.1,0,0,1,.66.09,1.62,1.62,0,0,1,.5.27l.19-.08.3-.12.3-.13.21-.09v.61l-.72.15a1.36,1.36,0,0,1,.11.28,1.13,1.13,0,0,1,0,.3,1.17,1.17,0,0,1-.73,1.11,2.28,2.28,0,0,1-.93.16h-.2a1.72,1.72,0,0,0-.64.1c-.12.06-.18.13-.18.2s.06.13.18.16a3.5,3.5,0,0,0,.62.09H75l.5,0a1.56,1.56,0,0,1,1,.31.93.93,0,0,1,.34.77,1,1,0,0,1-.48.89,2.53,2.53,0,0,1-1.47.35m.11-.42a1.88,1.88,0,0,0,.91-.18.61.61,0,0,0,.33-.56A.54.54,0,0,0,76,75.1a1,1,0,0,0-.58-.19l-1.2-.08a.79.79,0,0,0-.32.08.91.91,0,0,0-.3.25.61.61,0,0,0-.12.37.6.6,0,0,0,.36.54,2.41,2.41,0,0,0,1.11.2m-.1-2.91a1.2,1.2,0,0,0,.76-.22.74.74,0,0,0,.29-.63.77.77,0,0,0-.29-.66,1.21,1.21,0,0,0-.76-.23,1.24,1.24,0,0,0-.77.23.77.77,0,0,0-.29.66.74.74,0,0,0,.27.62,1.24,1.24,0,0,0,.79.23"/><path d="M78.18,73.45a2,2,0,0,0,.13.75,1.16,1.16,0,0,0,.42.53,1.12,1.12,0,0,0,.7.2,1.29,1.29,0,0,0,.72-.19.84.84,0,0,0,.37-.56h.59a1.38,1.38,0,0,1-.32.69,1.6,1.6,0,0,1-.61.41,1.84,1.84,0,0,1-.74.14,2,2,0,0,1-1-.24,1.7,1.7,0,0,1-.67-.71,2.41,2.41,0,0,1-.24-1.12,2.81,2.81,0,0,1,.22-1.13,1.56,1.56,0,0,1,.63-.75,1.74,1.74,0,0,1,1-.27,1.76,1.76,0,0,1,1,.24,1.56,1.56,0,0,1,.6.69,2.69,2.69,0,0,1,.2,1.07v.25Zm0-.43h2.36a1.83,1.83,0,0,0-.12-.68,1.13,1.13,0,0,0-.38-.48,1.11,1.11,0,0,0-.65-.18,1.15,1.15,0,0,0-.69.2,1.28,1.28,0,0,0-.39.5,1.59,1.59,0,0,0-.13.64"/><path d="M82.05,75.35V71.28h.59v.59a1.54,1.54,0,0,1,.45-.47,1.36,1.36,0,0,1,.76-.2,1.44,1.44,0,0,1,.46.08,1.35,1.35,0,0,1,.43.22,1,1,0,0,1,.29.37,1.41,1.41,0,0,1,1.25-.67,1.72,1.72,0,0,1,.44.06,1.13,1.13,0,0,1,.43.23,1,1,0,0,1,.32.45,1.77,1.77,0,0,1,.13.75v2.66H87v-2.6a1.36,1.36,0,0,0-.12-.63.73.73,0,0,0-.33-.3,1,1,0,0,0-.43-.09,1.41,1.41,0,0,0-.43.08.84.84,0,0,0-.38.26.78.78,0,0,0-.16.53v2.75h-.62V72.5a.64.64,0,0,0-.13-.42.8.8,0,0,0-.34-.26.93.93,0,0,0-.4-.09,1.19,1.19,0,0,0-.44.09.82.82,0,0,0-.38.28.78.78,0,0,0-.15.5v2.75Z"/><path d="M89.08,73.45a2,2,0,0,0,.13.75,1.21,1.21,0,0,0,.41.53,1.15,1.15,0,0,0,.71.2,1.26,1.26,0,0,0,.71-.19.86.86,0,0,0,.38-.56H92a1.31,1.31,0,0,1-.33.69,1.57,1.57,0,0,1-.6.41,1.87,1.87,0,0,1-.74.14,2,2,0,0,1-1-.24,1.74,1.74,0,0,1-.66-.71,2.41,2.41,0,0,1-.24-1.12,2.65,2.65,0,0,1,.22-1.13,1.6,1.6,0,0,1,.62-.75,2,2,0,0,1,1.95,0,1.48,1.48,0,0,1,.59.69A2.52,2.52,0,0,1,92,73.2v.25Zm0-.43h2.36a1.65,1.65,0,0,0-.13-.68,1.06,1.06,0,0,0-.38-.48,1.09,1.09,0,0,0-.65-.18,1.14,1.14,0,0,0-.68.2,1.12,1.12,0,0,0-.39.5,1.59,1.59,0,0,0-.13.64"/><path d="M93,75.35V71.28h.59v.59a1.37,1.37,0,0,1,.28-.32,1.43,1.43,0,0,1,.44-.24,1.72,1.72,0,0,1,.58-.09,1.64,1.64,0,0,1,.71.15,1.2,1.2,0,0,1,.52.48,1.63,1.63,0,0,1,.19.84v2.66h-.61v-2.6a1,1,0,0,0-.26-.77,1,1,0,0,0-.7-.25,1.42,1.42,0,0,0-.55.1.89.89,0,0,0-.42.28.78.78,0,0,0-.16.49v2.75Z"/><path d="M99.18,71.74h-.92v2.62a1,1,0,0,0,0,.35.21.21,0,0,0,.16.13,1.42,1.42,0,0,0,.33,0h.41v.43a.87.87,0,0,1-.22,0l-.35,0a1.37,1.37,0,0,1-.6-.11.59.59,0,0,1-.31-.33,1.62,1.62,0,0,1-.08-.54V71.74H97v-.46h.67l.15-1.17h.46v1.17h.92Z"/><path d="M104,75.42a2.8,2.8,0,0,1-.77-.1,2.23,2.23,0,0,1-.67-.29,1.76,1.76,0,0,1-.49-.49,1.65,1.65,0,0,1-.26-.67h.65a1.12,1.12,0,0,0,.3.57,1.37,1.37,0,0,0,.54.35,2.26,2.26,0,0,0,.69.11,2.2,2.2,0,0,0,.76-.12,1.23,1.23,0,0,0,.52-.35.76.76,0,0,0,.19-.52.89.89,0,0,0-.12-.47.83.83,0,0,0-.33-.34,1.86,1.86,0,0,0-.55-.21l-1.14-.28a1.93,1.93,0,0,1-1-.48,1.24,1.24,0,0,1-.36-.91,1.47,1.47,0,0,1,.26-.85,1.73,1.73,0,0,1,.7-.57,2.37,2.37,0,0,1,1-.21,2.51,2.51,0,0,1,1.12.23,1.69,1.69,0,0,1,.68.61,1.51,1.51,0,0,1,.23.79h-.64a1.06,1.06,0,0,0-.74-1,2,2,0,0,0-.65-.11,1.61,1.61,0,0,0-.49.07,1.66,1.66,0,0,0-.43.19.94.94,0,0,0-.3.33.85.85,0,0,0-.12.46.67.67,0,0,0,.23.52,1.82,1.82,0,0,0,.79.36l1.12.27a2.22,2.22,0,0,1,.66.26,1.46,1.46,0,0,1,.4.38,1.43,1.43,0,0,1,.2.46,2,2,0,0,1,.06.48,1.24,1.24,0,0,1-.25.76,1.62,1.62,0,0,1-.71.56,2.75,2.75,0,0,1-1.13.2"/><path d="M108.69,71.2a1.77,1.77,0,0,1,.77.16,1.44,1.44,0,0,1,.56.45,1.47,1.47,0,0,1,.29.7h-.56a1.07,1.07,0,0,0-.18-.41.94.94,0,0,0-.36-.29,1.29,1.29,0,0,0-1.42.29,1.83,1.83,0,0,0-.34,1.22,2,2,0,0,0,.31,1.18,1.1,1.1,0,0,0,.94.44,1.21,1.21,0,0,0,.52-.11.94.94,0,0,0,.36-.29.84.84,0,0,0,.17-.4h.56a1.43,1.43,0,0,1-.29.69,1.46,1.46,0,0,1-.57.44,1.87,1.87,0,0,1-.76.15,1.9,1.9,0,0,1-1-.23,1.67,1.67,0,0,1-.65-.71,2.63,2.63,0,0,1-.23-1.16,2.75,2.75,0,0,1,.21-1.11,1.67,1.67,0,0,1,.62-.74,1.81,1.81,0,0,1,1-.27"/><path d="M111.21,75.34h.6V71.28h-.6Zm0-5h.65v-.68h-.65Z"/><path d="M113.37,73.45a2,2,0,0,0,.14.75,1.12,1.12,0,0,0,1.12.73,1.28,1.28,0,0,0,.71-.19.84.84,0,0,0,.37-.56h.59a1.38,1.38,0,0,1-.32.69,1.65,1.65,0,0,1-.6.41,1.92,1.92,0,0,1-.75.14,2,2,0,0,1-1-.24,1.77,1.77,0,0,1-.67-.71,2.54,2.54,0,0,1-.23-1.12,2.81,2.81,0,0,1,.21-1.13,1.68,1.68,0,0,1,.63-.75,1.77,1.77,0,0,1,1-.27,1.74,1.74,0,0,1,1,.24,1.56,1.56,0,0,1,.6.69,2.52,2.52,0,0,1,.2,1.07v.25Zm0-.43h2.36a1.83,1.83,0,0,0-.13-.68,1.06,1.06,0,0,0-.38-.48,1.26,1.26,0,0,0-1.33,0,1.22,1.22,0,0,0-.4.5,1.58,1.58,0,0,0-.12.64"/><path d="M117.25,75.35V71.28h.58v.59a1.43,1.43,0,0,1,.29-.32,1.37,1.37,0,0,1,.43-.24,1.76,1.76,0,0,1,.58-.09,1.72,1.72,0,0,1,.72.15,1.2,1.2,0,0,1,.52.48,1.63,1.63,0,0,1,.19.84v2.66H120v-2.6a1,1,0,0,0-.27-.77.93.93,0,0,0-.69-.25,1.5,1.5,0,0,0-.56.1.86.86,0,0,0-.41.28.72.72,0,0,0-.16.49v2.75Z"/><path d="M123.24,71.2a1.73,1.73,0,0,1,.76.16,1.4,1.4,0,0,1,.57.45,1.46,1.46,0,0,1,.28.7h-.56a.92.92,0,0,0-.17-.41,1.06,1.06,0,0,0-.37-.29,1.13,1.13,0,0,0-.51-.1,1.14,1.14,0,0,0-.9.39,1.83,1.83,0,0,0-.35,1.22,2,2,0,0,0,.32,1.18,1.08,1.08,0,0,0,.94.44,1.16,1.16,0,0,0,.51-.11.94.94,0,0,0,.36-.29,1,1,0,0,0,.18-.4h.55a1.34,1.34,0,0,1-.29.69,1.5,1.5,0,0,1-.56.44,1.87,1.87,0,0,1-.76.15,1.9,1.9,0,0,1-1-.23,1.55,1.55,0,0,1-.65-.71,2.49,2.49,0,0,1-.24-1.16,2.75,2.75,0,0,1,.22-1.11,1.61,1.61,0,0,1,.62-.74,1.79,1.79,0,0,1,1-.27"/><path d="M126.15,73.45a2,2,0,0,0,.13.75,1.16,1.16,0,0,0,.42.53,1.12,1.12,0,0,0,.7.2,1.29,1.29,0,0,0,.72-.19.88.88,0,0,0,.37-.56h.59a1.38,1.38,0,0,1-.32.69,1.6,1.6,0,0,1-.61.41,1.84,1.84,0,0,1-.74.14,2,2,0,0,1-1-.24,1.7,1.7,0,0,1-.67-.71,2.41,2.41,0,0,1-.24-1.12,2.81,2.81,0,0,1,.22-1.13,1.56,1.56,0,0,1,.63-.75,1.74,1.74,0,0,1,1-.27,1.76,1.76,0,0,1,1,.24,1.56,1.56,0,0,1,.6.69,2.69,2.69,0,0,1,.2,1.07v.25Zm0-.43h2.36a1.83,1.83,0,0,0-.12-.68,1.13,1.13,0,0,0-.38-.48,1.11,1.11,0,0,0-.65-.18,1.15,1.15,0,0,0-.69.2,1.2,1.2,0,0,0-.39.5,1.59,1.59,0,0,0-.13.64"/><path d="M47.39,83.94a1.52,1.52,0,0,1-.69-.14,1,1,0,0,1-.47-.4,1.12,1.12,0,0,1-.16-.62,1.14,1.14,0,0,1,.46-1A2.75,2.75,0,0,1,48,81.42l.79,0v-.34a.85.85,0,0,0-.24-.63,1,1,0,0,0-.75-.24,1.15,1.15,0,0,0-.65.18.77.77,0,0,0-.35.56h-.56a1.22,1.22,0,0,1,.21-.65,1.25,1.25,0,0,1,.55-.42,2.29,2.29,0,0,1,.83-.14,2.12,2.12,0,0,1,.85.15,1,1,0,0,1,.52.44,1.36,1.36,0,0,1,.18.73v2.82h-.53l0-.78a1.48,1.48,0,0,1-.62.68,1.86,1.86,0,0,1-.82.18m.18-.46A1.17,1.17,0,0,0,48,83.4a1.53,1.53,0,0,0,.4-.21,1.22,1.22,0,0,0,.29-.31.65.65,0,0,0,.11-.34v-.73h-.66a3.17,3.17,0,0,0-.84.11,1,1,0,0,0-.49.29.78.78,0,0,0-.16.51.66.66,0,0,0,.26.55,1,1,0,0,0,.65.2"/><path d="M50.51,83.87V79.8h.59v.59a1.43,1.43,0,0,1,.29-.32,1.27,1.27,0,0,1,.43-.24,1.76,1.76,0,0,1,.58-.09,1.72,1.72,0,0,1,.72.15,1.2,1.2,0,0,1,.52.48,1.74,1.74,0,0,1,.19.84v2.66h-.62v-2.6A1,1,0,0,0,53,80.5a1,1,0,0,0-.69-.25,1.47,1.47,0,0,0-.56.1.94.94,0,0,0-.42.28.77.77,0,0,0-.15.49v2.75Z"/><path d="M56.39,83.94a1.55,1.55,0,0,1-1.25-.53,2.38,2.38,0,0,1-.47-1.59,3.14,3.14,0,0,1,.19-1.11,1.49,1.49,0,0,1,1.49-1,1.82,1.82,0,0,1,.55.08,1.87,1.87,0,0,1,.4.2,1.57,1.57,0,0,1,.26.25,1.44,1.44,0,0,1,.15.22V78h.62v5.84h-.48L57.78,83a1.65,1.65,0,0,1-.11.26,1.58,1.58,0,0,1-.24.3,1.23,1.23,0,0,1-.42.25,1.61,1.61,0,0,1-.62.1m.09-.48a1.09,1.09,0,0,0,1-.4,2.23,2.23,0,0,0,.28-1.28,2.32,2.32,0,0,0-.13-.84,1,1,0,0,0-.38-.54,1.14,1.14,0,0,0-.7-.19,1.11,1.11,0,0,0-.87.38,1.78,1.78,0,0,0-.33,1.19A2.19,2.19,0,0,0,55.6,83a1,1,0,0,0,.88.45"/><rect x="61.44" y="78.18" width="0.61" height="5.69"/><path d="M63.28,83.87V79.8h.59v.59a1.37,1.37,0,0,1,.28-.32,1.32,1.32,0,0,1,.44-.24,1.72,1.72,0,0,1,.58-.09,1.64,1.64,0,0,1,.71.15,1.2,1.2,0,0,1,.52.48,1.63,1.63,0,0,1,.19.84v2.66H66v-2.6a1,1,0,0,0-.26-.77,1,1,0,0,0-.7-.25,1.5,1.5,0,0,0-.56.1.86.86,0,0,0-.41.28.72.72,0,0,0-.16.49v2.75Z"/><path d="M69.78,79.8v.46h-1v3.61h-.62V80.26h-.88V79.8h.88v-.65a1,1,0,0,1,.24-.72.94.94,0,0,1,.72-.25h.72v.45h-.63a.37.37,0,0,0-.35.14.77.77,0,0,0-.09.42v.61Z"/><path d="M72.06,83.94a2,2,0,0,1-1-.23,1.58,1.58,0,0,1-.64-.71,2.51,2.51,0,0,1-.23-1.15,2.76,2.76,0,0,1,.21-1.12,1.56,1.56,0,0,1,.62-.74,1.79,1.79,0,0,1,1-.27A1.9,1.9,0,0,1,73,80a1.59,1.59,0,0,1,.63.72,2.69,2.69,0,0,1,.22,1.17,2.65,2.65,0,0,1-.2,1.09,1.65,1.65,0,0,1-.61.74,1.77,1.77,0,0,1-1,.26m0-.49a1.08,1.08,0,0,0,.65-.19,1.16,1.16,0,0,0,.41-.55,2.29,2.29,0,0,0,.14-.88,2.68,2.68,0,0,0-.12-.83,1.24,1.24,0,0,0-.39-.57,1.09,1.09,0,0,0-.69-.21,1.16,1.16,0,0,0-.66.18A1.12,1.12,0,0,0,71,81a2.31,2.31,0,0,0-.15.88,2.37,2.37,0,0,0,.13.83,1.26,1.26,0,0,0,.4.58,1.1,1.1,0,0,0,.7.21"/><path d="M74.76,83.87V79.8h.59v.73a1,1,0,0,1,.29-.46,1,1,0,0,1,.42-.26,1.27,1.27,0,0,1,.47-.09h.19a.37.37,0,0,1,.15,0v.6a.58.58,0,0,0-.17,0h-.17a1.93,1.93,0,0,0-.42,0,1,1,0,0,0-.37.16.84.84,0,0,0-.27.29,1,1,0,0,0-.09.46v2.61Z"/><path d="M77.62,83.87V79.8h.59v.59a1.34,1.34,0,0,1,.45-.47,1.32,1.32,0,0,1,.76-.2,1.54,1.54,0,0,1,.46.08,1.41,1.41,0,0,1,.42.22,1,1,0,0,1,.3.37,1.34,1.34,0,0,1,.51-.49,1.46,1.46,0,0,1,.73-.18,1.72,1.72,0,0,1,.44.06,1.13,1.13,0,0,1,.43.23,1.06,1.06,0,0,1,.33.45,2,2,0,0,1,.12.75v2.66h-.61v-2.6a1.35,1.35,0,0,0-.13-.63.71.71,0,0,0-.32-.3,1.07,1.07,0,0,0-.43-.09,1.35,1.35,0,0,0-.43.08.87.87,0,0,0-.39.26.78.78,0,0,0-.16.53v2.75h-.61V81a.64.64,0,0,0-.14-.42.83.83,0,0,0-.33-.26,1,1,0,0,0-.4-.09,1.2,1.2,0,0,0-.45.09.88.88,0,0,0-.38.28.78.78,0,0,0-.15.5v2.75Z"/><path d="M85.33,83.94a1.54,1.54,0,0,1-.7-.14,1,1,0,0,1-.46-.4,1.13,1.13,0,0,1-.17-.62,1.16,1.16,0,0,1,.46-1,2.79,2.79,0,0,1,1.5-.36l.78,0v-.34a.81.81,0,0,0-.24-.63,1,1,0,0,0-.74-.24,1.21,1.21,0,0,0-.66.18.8.8,0,0,0-.35.56h-.56a1.23,1.23,0,0,1,.22-.65,1.27,1.27,0,0,1,.54-.42,2.34,2.34,0,0,1,.84-.14,2.15,2.15,0,0,1,.85.15,1.08,1.08,0,0,1,.52.44,1.36,1.36,0,0,1,.18.73v2.82h-.53l0-.78a1.54,1.54,0,0,1-.62.68,1.92,1.92,0,0,1-.82.18m.17-.46a1.11,1.11,0,0,0,.44-.08,1.39,1.39,0,0,0,.4-.21,1.06,1.06,0,0,0,.29-.31.57.57,0,0,0,.11-.34v-.73h-.65a3.25,3.25,0,0,0-.85.11.91.91,0,0,0-.48.29.73.73,0,0,0-.16.51.66.66,0,0,0,.25.55,1,1,0,0,0,.65.2"/><path d="M90.33,80.26h-.92v2.62a1,1,0,0,0,0,.35.23.23,0,0,0,.16.13,1.42,1.42,0,0,0,.33,0h.42v.43a1,1,0,0,1-.23,0l-.35,0a1.37,1.37,0,0,1-.6-.11.54.54,0,0,1-.3-.33,1.38,1.38,0,0,1-.09-.54V80.26h-.66V79.8h.68L89,78.63h.46V79.8h.92Z"/><path d="M91.23,83.87h.6V79.8h-.6Zm0-5h.65v-.68H91.2Z"/><path d="M94.59,79.72a1.7,1.7,0,0,1,.76.16,1.4,1.4,0,0,1,.57.45,1.47,1.47,0,0,1,.29.7h-.56a1.07,1.07,0,0,0-.18-.41.94.94,0,0,0-.36-.29,1.29,1.29,0,0,0-1.42.29,1.83,1.83,0,0,0-.34,1.22A2,2,0,0,0,93.66,83a1.1,1.1,0,0,0,.94.44,1.21,1.21,0,0,0,.52-.11.94.94,0,0,0,.36-.29.84.84,0,0,0,.17-.4h.56a1.43,1.43,0,0,1-.29.69,1.46,1.46,0,0,1-.57.44,1.87,1.87,0,0,1-.76.15,1.9,1.9,0,0,1-1-.23A1.61,1.61,0,0,1,93,83a2.63,2.63,0,0,1-.23-1.16A2.75,2.75,0,0,1,93,80.73a1.67,1.67,0,0,1,.62-.74,1.81,1.81,0,0,1,1-.27"/><path d="M98.55,83.94a2.2,2.2,0,0,1-.78-.13,1.28,1.28,0,0,1-.88-1.1h.58a.83.83,0,0,0,.2.41.92.92,0,0,0,.37.26,1.36,1.36,0,0,0,.51.09,1.32,1.32,0,0,0,.7-.17.62.62,0,0,0,.12-.9.79.79,0,0,0-.41-.21L98.09,82a1.91,1.91,0,0,1-.77-.37.85.85,0,0,1-.28-.69,1.17,1.17,0,0,1,.16-.62,1.24,1.24,0,0,1,.5-.42,2.1,2.1,0,0,1,.84-.15,1.75,1.75,0,0,1,1,.29,1,1,0,0,1,.41.86h-.56a.7.7,0,0,0-.26-.5,1,1,0,0,0-.63-.18,1.21,1.21,0,0,0-.67.17.57.57,0,0,0-.26.52.43.43,0,0,0,.18.37,1.44,1.44,0,0,0,.51.22l.86.22a1.39,1.39,0,0,1,.44.19,1,1,0,0,1,.28.26.85.85,0,0,1,.15.3,1.18,1.18,0,0,1,0,.31,1.12,1.12,0,0,1-.18.64,1.21,1.21,0,0,1-.52.41,2.25,2.25,0,0,1-.83.14"/><path d="M41.09,63.93a2.19,2.19,0,0,1-.19,1,1.29,1.29,0,0,1-.58.62,2.3,2.3,0,0,1-1.06.21,2.13,2.13,0,0,1-1-.22,1.25,1.25,0,0,1-.59-.63,2.61,2.61,0,0,1-.18-1v-3h.82v3a1.11,1.11,0,0,0,.27.82,1,1,0,0,0,.73.26,1.13,1.13,0,0,0,.54-.12.76.76,0,0,0,.36-.35,1.35,1.35,0,0,0,.12-.61v-3h.81Z"/><polygon points="45.22 60.92 46.02 60.92 46.02 65.66 45.3 65.66 42.92 62.18 42.92 65.66 42.12 65.66 42.12 60.92 42.9 60.92 45.22 64.3 45.22 60.92"/><rect x="47.12" y="60.92" width="0.8" height="4.74"/><polygon points="52.81 60.92 51.16 65.66 50.23 65.66 48.6 60.92 49.37 60.92 50.7 64.73 52.04 60.92 52.81 60.92"/><polygon points="53.5 65.66 53.5 60.92 56.63 60.92 56.63 61.6 54.3 61.6 54.3 62.93 56.35 62.93 56.35 63.6 54.29 63.6 54.29 64.96 56.68 64.97 56.68 65.66 53.5 65.66"/><path d="M61.07,65.66h-.84l-.81-1.93h-1.1v1.93h-.8V60.92h1.92a2,2,0,0,1,.9.17,1.09,1.09,0,0,1,.52.47,1.42,1.42,0,0,1,.17.72,1.48,1.48,0,0,1-.12.63,1.18,1.18,0,0,1-.32.43,2.73,2.73,0,0,1-.43.26ZM59.26,63.1a1.07,1.07,0,0,0,.71-.21.7.7,0,0,0,.25-.58.69.69,0,0,0-.23-.57,1,1,0,0,0-.62-.2h-1V63.1Z"/><path d="M63.6,65.72a3.07,3.07,0,0,1-.67-.08,2.25,2.25,0,0,1-.59-.26,1.68,1.68,0,0,1-.45-.43,1.3,1.3,0,0,1-.21-.6h.82a.9.9,0,0,0,.21.4,1,1,0,0,0,.39.25,1.59,1.59,0,0,0,.5.08,1.44,1.44,0,0,0,.53-.08.77.77,0,0,0,.38-.23.51.51,0,0,0,.14-.36.52.52,0,0,0-.1-.33.69.69,0,0,0-.28-.22,1.81,1.81,0,0,0-.43-.14L63,63.53a1.76,1.76,0,0,1-.84-.42,1.17,1.17,0,0,1-.31-.83,1.19,1.19,0,0,1,.23-.75,1.51,1.51,0,0,1,.63-.5,2.6,2.6,0,0,1,1.9,0,1.48,1.48,0,0,1,.61.51,1.28,1.28,0,0,1,.21.71h-.81a.76.76,0,0,0-.16-.45.88.88,0,0,0-.36-.24,1.43,1.43,0,0,0-.48-.07,1.5,1.5,0,0,0-.37,0,.87.87,0,0,0-.29.14.66.66,0,0,0-.2.21.57.57,0,0,0-.07.29.48.48,0,0,0,.15.37,1.18,1.18,0,0,0,.57.24l.85.19a1.65,1.65,0,0,1,.64.24,1,1,0,0,1,.37.36,1.12,1.12,0,0,1,.17.41,1.9,1.9,0,0,1,0,.4,1.11,1.11,0,0,1-.23.67,1.59,1.59,0,0,1-.64.48,2.7,2.7,0,0,1-1,.17"/><rect x="66.36" y="60.92" width="0.8" height="4.74"/><polygon points="67.83 61.64 67.83 60.92 71.53 60.92 71.53 61.64 70.11 61.64 70.11 65.66 69.31 65.66 69.31 61.64 67.83 61.64"/><polygon points="76.01 60.92 74.38 63.66 74.38 65.66 73.58 65.66 73.58 63.65 71.95 60.92 72.82 60.92 73.99 62.95 75.14 60.92 76.01 60.92"/><path d="M79.85,65.72a2.09,2.09,0,0,1-1.13-.29A1.93,1.93,0,0,1,78,64.6a3,3,0,0,1-.26-1.3A3.14,3.14,0,0,1,78,62a2,2,0,0,1,.75-.84,2.15,2.15,0,0,1,1.12-.29,2.12,2.12,0,0,1,1.12.29,1.93,1.93,0,0,1,.73.84A3,3,0,0,1,82,63.3a3,3,0,0,1-.25,1.3,1.91,1.91,0,0,1-.73.83,2.09,2.09,0,0,1-1.13.29m0-.67a1.22,1.22,0,0,0,.67-.18A1.17,1.17,0,0,0,81,64.3a3,3,0,0,0,.14-1,2.89,2.89,0,0,0-.15-1,1.14,1.14,0,0,0-.43-.58,1.24,1.24,0,0,0-1.32,0,1.16,1.16,0,0,0-.44.58,2.93,2.93,0,0,0-.15,1,2.71,2.71,0,0,0,.15,1,1.13,1.13,0,0,0,.44.57,1.16,1.16,0,0,0,.66.18"/><polygon points="82.85 60.92 85.95 60.92 85.95 61.59 83.66 61.59 83.66 62.95 85.68 62.95 85.68 63.62 83.66 63.62 83.66 65.66 82.85 65.66 82.85 60.92"/><path d="M87.94,65.66v-.41l2.49-3.65H88.08v-.68h3.48v.39L89,65h2.5v.69Zm1.63-5.14-.84-.8h.63l.49.47.44-.47H91l-.83.8Z"/><rect x="92.32" y="60.92" width="0.8" height="4.74"/><polygon points="94.22 60.92 95.02 60.92 95.02 64.97 97.16 64.97 97.16 65.66 94.21 65.66 94.22 60.92"/><rect x="97.91" y="60.92" width="0.8" height="4.74"/><polygon points="102.91 60.92 103.7 60.92 103.7 65.66 102.99 65.66 100.61 62.18 100.61 65.66 99.81 65.66 99.81 60.92 100.59 60.92 102.91 64.3 102.91 60.92"/><path d="M104.43,65.66l1.7-4.74H107l1.7,4.74h-.8l-.43-1.19h-1.8l-.44,1.19Zm1.42-1.9h1.43l-.71-2.06Z"/><rect x="60.99" y="52.88" width="24.17" height="0.46"/><path d="M58.85,23.41a1,1,0,0,1,.32-.81A3.69,3.69,0,0,1,61.55,22c.41,0,.81,0,1.16,0h.1a29.58,29.58,0,0,1,13.74,5.1c-1,1.16-2.23,2.44-3.64,3.86a33.62,33.62,0,0,0-3.18,3.67,53.17,53.17,0,0,1-9.33-8.89,14,14,0,0,0-.87-1.16,2.87,2.87,0,0,1-.68-1.25m22-5.64a2.46,2.46,0,0,1,1-.28,1.5,1.5,0,0,1,.86.21c0,.5-.41,3-5.93,9.28A29.14,29.14,0,0,0,70,23.44a31.45,31.45,0,0,0-4.56-1.3c3.35,0,8.23-.72,15.42-4.37m2.77,1.57a11.89,11.89,0,0,1-.63,3.6L83,23c-.73,2.72-1.63,6.08-.42,9.52a26.7,26.7,0,0,0-5.43-5.29c4.81-5.45,5.8-8.14,6-9.18a2.13,2.13,0,0,1,.52,1.27m3.36,19a.81.81,0,0,1-.27,1.42l-.08,0a8.55,8.55,0,0,1-1.2.2c-5.09.27-10.21-1.4-15.31-5a32.54,32.54,0,0,1,3.12-3.61c1.43-1.44,2.65-2.74,3.7-3.92A26.13,26.13,0,0,1,83,33.73,13.75,13.75,0,0,0,87,38.33m-18.48,6a2.41,2.41,0,0,1-2,.58c-.1-.76-.37-4.42,3.43-9.68a26.24,26.24,0,0,0,12.23,5c-4.23.19-9.81.55-13.68,4.14m-4-1.44a10.22,10.22,0,0,1-.05-1.11c-.06-2.67-.22-9.1-3.13-14.41a50.85,50.85,0,0,0,8.23,7.59C65.88,40,65.9,43.61,66,44.76a2.43,2.43,0,0,1-1.52-1.89m-.45.09a2.85,2.85,0,0,0,2.83,2.42,2.89,2.89,0,0,0,1.92-.74c3.88-3.6,9.64-3.85,13.88-4a22.38,22.38,0,0,0,4-.38l.11,0A1.28,1.28,0,0,0,87.75,39a1.25,1.25,0,0,0-.52-1c-6.45-5-4.94-10.69-3.83-14.81l0-.08a12.46,12.46,0,0,0,.65-3.77,2.55,2.55,0,0,0-.85-1.75,1.92,1.92,0,0,0-1.44-.5,2.7,2.7,0,0,0-1.16.32c-9.2,4.68-14.57,4.42-17.78,4.26h-.1c-1.29-.07-3.05-.15-3.89.64a1.56,1.56,0,0,0-.46,1.15A3.23,3.23,0,0,0,59.18,25c4.56,5.48,4.75,13.71,4.82,16.81A8.75,8.75,0,0,0,64.06,43"/></svg>