<svg xmlns="http://www.w3.org/2000/svg" width="352" height="37" viewBox="0 0 352 37" fill="none">
<path d="M14.29 28.22V8.96H22.68V6.12H11.36V31.07H22.68V28.23H14.29V28.22ZM25.84 6.12V8.96H34.03V28.22H25.84V31.06H37.26V6.12H25.84ZM17.44 11.85V25.33H30.86V11.85H17.44ZM27.93 22.39H20.36V14.79H27.93V22.39ZM42.96 34.1V6.1H40.07V34.1H8.33V6.1H5.44V34.1H5.41V37H42.96V34.1ZM45.78 0H0V37H2.89V2.9H45.78V37H48.67V0H45.78ZM74.71 15.52H72.53V14.4H78.1V15.52H75.92V21.3H74.7V15.52H74.71ZM79.38 14.39H80.59V17.26H83.87V14.39H85.08V21.29H83.87V18.38H80.59V21.29H79.38V14.39ZM86.83 14.39H91.92V15.47H88.04V17.26H91.48V18.34H88.04V20.19H91.97V21.27H86.83V14.37V14.39ZM96.35 14.39H97.56V17.26H100.84V14.39H102.05V21.29H100.84V18.38H97.56V21.29H96.35V14.39ZM103.88 14.39H105.09V21.29H103.88V14.39ZM106.61 17.86V17.84C106.61 15.91 108.08 14.27 110.15 14.27C111.35 14.27 112.08 14.61 112.79 15.21L112.03 16.12C111.5 15.67 110.98 15.38 110.11 15.38C108.85 15.38 107.89 16.49 107.89 17.81V17.83C107.89 19.25 108.82 20.3 110.22 20.3C110.87 20.3 111.46 20.09 111.88 19.78V18.49H110.12V17.44H113.04V20.34C112.36 20.92 111.39 21.42 110.18 21.42C108.03 21.42 106.62 19.88 106.62 17.87L106.61 17.86ZM114.61 14.39H115.82V17.26H119.1V14.39H120.31V21.29H119.1V18.38H115.82V21.29H114.61V14.39ZM122.07 14.39H127.16V15.47H123.28V17.26H126.72V18.34H123.28V20.19H127.21V21.27H122.07V14.37V14.39ZM128.18 20.29L128.91 19.42C129.57 19.99 130.22 20.32 131.08 20.32C131.82 20.32 132.3 19.97 132.3 19.45V19.43C132.3 18.94 132.02 18.67 130.75 18.38C129.29 18.02 128.46 17.59 128.46 16.32V16.3C128.46 15.12 129.44 14.3 130.81 14.3C131.81 14.3 132.61 14.6 133.3 15.17L132.65 16.09C132.03 15.63 131.41 15.38 130.78 15.38C130.07 15.38 129.66 15.74 129.66 16.2V16.22C129.66 16.75 129.97 16.99 131.29 17.3C132.74 17.66 133.5 18.18 133.5 19.32V19.34C133.5 20.63 132.49 21.4 131.05 21.4C130 21.4 129.01 21.04 128.19 20.3L128.18 20.29ZM136.46 15.52H134.28V14.4H139.85V15.52H137.67V21.3H136.45V15.52H136.46ZM144.08 14.39H145.37L147.46 17.65L149.55 14.39H150.84V21.29H149.63V16.34L147.46 19.59H147.42L145.27 16.36V21.29H144.08V14.39ZM155.03 14.34H156.15L159.17 21.29H157.9L157.2 19.62H153.95L153.24 21.29H152L155.02 14.34H155.03ZM156.75 18.55L155.56 15.79L154.38 18.55H156.74H156.75ZM159.77 20.29L160.5 19.42C161.16 19.99 161.81 20.32 162.67 20.32C163.42 20.32 163.89 19.97 163.89 19.45V19.43C163.89 18.94 163.61 18.67 162.34 18.38C160.88 18.02 160.06 17.59 160.06 16.32V16.3C160.06 15.12 161.04 14.3 162.41 14.3C163.41 14.3 164.21 14.6 164.9 15.17L164.25 16.09C163.63 15.63 163.01 15.38 162.39 15.38C161.68 15.38 161.27 15.74 161.27 16.2V16.22C161.27 16.75 161.58 16.99 162.9 17.3C164.35 17.66 165.11 18.18 165.11 19.32V19.34C165.11 20.63 164.1 21.4 162.66 21.4C161.61 21.4 160.62 21.04 159.8 20.3L159.77 20.29ZM168.05 15.52H165.87V14.4H171.44V15.52H169.26V21.3H168.04V15.52H168.05ZM172.72 14.39H177.81V15.47H173.92V17.26H177.36V18.34H173.92V20.19H177.85V21.27H172.71V14.37L172.72 14.39ZM179.29 14.39H182.35C183.21 14.39 183.89 14.65 184.33 15.08C184.69 15.45 184.9 15.97 184.9 16.57V16.59C184.9 17.73 184.22 18.4 183.26 18.68L185.11 21.29H183.69L182 18.88H180.49V21.29H179.28V14.39H179.29ZM182.26 17.81C183.12 17.81 183.67 17.36 183.67 16.66V16.64C183.67 15.9 183.14 15.5 182.25 15.5H180.49V17.82H182.26V17.81ZM188.16 18.57L185.43 14.39H186.85L188.77 17.45L190.71 14.39H192.09L189.36 18.54V21.29H188.14V18.57H188.16ZM195.81 17.86V17.84C195.81 15.9 197.3 14.27 199.41 14.27C201.52 14.27 202.99 15.88 202.99 17.82V17.84C202.99 19.78 201.5 21.41 199.39 21.41C197.28 21.41 195.81 19.8 195.81 17.86ZM201.72 17.86V17.84C201.72 16.5 200.75 15.39 199.38 15.39C198.01 15.39 197.06 16.48 197.06 17.82V17.84C197.06 19.18 198.03 20.29 199.39 20.29C200.75 20.29 201.71 19.2 201.71 17.86H201.72ZM204.45 14.39H209.56V15.49H205.66V17.37H209.12V18.47H205.66V21.28H204.45V14.38V14.39ZM275.32 14.39H277.88C280.04 14.39 281.53 15.88 281.53 17.82V17.84C281.53 19.78 280.04 21.29 277.88 21.29H275.32V14.39ZM277.88 20.19C279.32 20.19 280.27 19.22 280.27 17.86V17.84C280.27 16.49 279.33 15.49 277.88 15.49H276.52V20.18H277.88V20.19ZM282.99 14.39H288.08V15.47H284.19V17.26H287.63V18.34H284.19V20.19H288.12V21.27H282.98V14.37L282.99 14.39ZM288.98 14.39H290.31L292.38 19.69L294.44 14.39H295.74L292.89 21.34H291.83L288.98 14.39ZM296.93 14.39H302.02V15.47H298.14V17.26H301.58V18.34H298.14V20.19H302.07V21.27H296.93V14.37V14.39ZM303.5 14.39H304.71V20.18H308.32V21.28H303.5V14.38V14.39ZM308.88 17.86V17.84C308.88 15.9 310.37 14.27 312.48 14.27C314.59 14.27 316.06 15.88 316.06 17.82V17.84C316.06 19.78 314.57 21.41 312.46 21.41C310.35 21.41 308.88 19.8 308.88 17.86ZM314.8 17.86V17.84C314.8 16.5 313.83 15.39 312.46 15.39C311.09 15.39 310.14 16.48 310.14 17.82V17.84C310.14 19.18 311.11 20.29 312.48 20.29C313.85 20.29 314.8 19.2 314.8 17.86ZM317.52 14.39H320.23C321.83 14.39 322.84 15.31 322.84 16.69V16.71C322.84 18.26 321.6 19.06 320.09 19.06H318.73V21.28H317.52V14.38V14.39ZM320.13 17.98C321.04 17.98 321.61 17.47 321.61 16.75V16.73C321.61 15.92 321.03 15.5 320.13 15.5H318.73V17.98H320.13ZM324.08 14.39H325.37L327.46 17.65L329.55 14.39H330.84V21.29H329.64V16.34L327.47 19.59H327.43L325.28 16.36V21.29H324.09V14.39H324.08ZM332.59 14.39H337.68V15.47H333.8V17.26H337.24V18.34H333.8V20.19H337.73V21.27H332.59V14.37V14.39ZM339.17 14.39H340.29L343.97 19.16V14.39H345.16V21.29H344.15L340.36 16.38V21.29H339.17V14.39ZM348.61 15.52H346.43V14.4H352V15.52H349.82V21.3H348.6V15.52H348.61ZM213.52 20.27L214.24 19.41C214.89 19.98 215.55 20.3 216.4 20.3C217.15 20.3 217.62 19.96 217.62 19.44V19.42C217.62 18.93 217.35 18.66 216.07 18.37C214.61 18.02 213.79 17.58 213.79 16.32V16.3C213.79 15.12 214.77 14.3 216.13 14.3C217.13 14.3 217.92 14.61 218.61 15.16L217.97 16.07C217.35 15.61 216.74 15.36 216.11 15.36C215.41 15.36 215 15.72 215 16.17V16.19C215 16.72 215.31 16.96 216.62 17.27C218.07 17.63 218.82 18.14 218.82 19.29V19.31C218.82 20.6 217.81 21.36 216.38 21.36C215.34 21.36 214.35 21 213.52 20.26V20.27ZM219.88 17.85V17.83C219.88 15.89 221.37 14.27 223.47 14.27C225.57 14.27 227.04 15.87 227.04 17.81V17.83C227.04 19.77 225.55 21.39 223.45 21.39C221.35 21.39 219.88 19.79 219.88 17.85ZM225.77 17.85V17.83C225.77 16.49 224.8 15.38 223.44 15.38C222.08 15.38 221.13 16.47 221.13 17.81V17.83C221.13 19.17 222.1 20.28 223.46 20.28C224.82 20.28 225.77 19.19 225.77 17.85ZM228.43 14.39H233.53V15.49H229.64V17.37H233.09V18.47H229.64V21.27H228.44V14.39H228.43ZM236.46 15.51H234.29V14.39H239.85V15.51H237.68V21.27H236.46V15.51ZM240.52 14.39H241.82L243.45 19.49L245.13 14.37H246.15L247.83 19.49L249.46 14.39H250.72L248.33 21.32H247.29L245.61 16.38L243.93 21.32H242.89L240.5 14.39H240.52ZM253.44 14.34H254.55L257.57 21.27H256.3L255.6 19.61H252.36L251.66 21.27H250.43L253.44 14.34ZM255.16 18.54L253.98 15.79L252.81 18.54H255.17H255.16ZM258.67 14.39H261.72C262.58 14.39 263.26 14.64 263.7 15.08C264.06 15.45 264.27 15.96 264.27 16.56V16.58C264.27 17.71 263.59 18.39 262.64 18.66L264.49 21.26H263.07L261.39 18.86H259.89V21.26H258.69V14.38L258.67 14.39ZM261.64 17.8C262.5 17.8 263.05 17.35 263.05 16.65V16.63C263.05 15.89 262.52 15.49 261.63 15.49H259.88V17.8H261.64ZM265.68 14.39H270.76V15.47H266.88V17.26H270.31V18.34H266.88V20.19H270.8V21.27H265.67V14.39H265.68Z" fill="white"/>
</svg>