<?xml version="1.0" encoding="UTF-8"?><svg id="Layer_1" xmlns="http://www.w3.org/2000/svg" xmlns:xlink="http://www.w3.org/1999/xlink" viewBox="0 0 193.82 25"><defs><clipPath id="clippath"><rect width="231" height="25" style="fill:none; stroke-width:0px;"/></clipPath></defs><g style="clip-path:url(#clippath);"><path d="M0,12.55C0,4.23,9.54,0,16.72,0c6.49,0,14.6,3.2,16.42,10.04h-5.63c-1.54-4.44-6.52-6.53-10.78-6.53-4.91,0-11.19,3.06-11.19,9.01s6.28,9.01,11.19,9.01c4.27,0,9.24-2.13,10.78-6.57h5.63c-1.82,6.84-9.93,10.04-16.42,10.04C9.58,25,0,20.87,0,12.55Z" style="fill:#1f18c0; stroke-width:0px;"/><path d="M36.57,12.55c0-8.32,9.55-12.55,16.73-12.55s16.72,4.16,16.72,12.53-9.55,12.48-16.72,12.48-16.73-4.14-16.73-12.46ZM42.1,12.52c0,5.92,6.29,9.01,11.2,9.01s11.23-3.1,11.23-9.01-6.32-9.01-11.23-9.01-11.2,3.06-11.2,9.01Z" style="fill:#1f18c0; stroke-width:0px;"/><path d="M74.9.48h15.38c6.77,0,14.39,4.47,14.39,12.04s-7.59,12-14.39,12h-15.38V.48ZM79.81,3.92v17.2h10.47c4.7,0,9-3.61,9-8.6s-4.29-8.6-9-8.6h-10.47Z" style="fill:#1f18c0; stroke-width:0px;"/><path d="M109.31.48h4.91v24.04h-4.91V.48Z" style="fill:#1f18c0; stroke-width:0px;"/><path d="M120.33.48h5.46v12.14c0,5.81,5.01,8.6,10.06,8.6s10.06-2.79,10.06-8.6V.48h5.46v12.14c0,8.29-8.31,12.38-15.52,12.38s-15.52-4.06-15.52-12.35V.48Z" style="fill:#1f18c0; stroke-width:0px;"/><path d="M156.94.48h9.1l9.34,18.98L184.72.48h9.1v24.04h-4.88V2.75l-10.75,21.77h-5.63l-10.72-21.77v21.77h-4.91V.48Z" style="fill:#1f18c0; stroke-width:0px;"/></g></svg>